<svg width="62" height="60" viewBox="0 0 62 60" fill="none" xmlns="http://www.w3.org/2000/svg">
<path fill-rule="evenodd" clip-rule="evenodd" d="M22.3305 1.65199C15.6613 5.50529 15.1449 14.493 20.5856 32.0333C22.937 39.6105 23.4776 49.4243 21.6984 52.2055C19.9363 54.9625 13.7962 56.6531 10.2864 55.3507C5.42351 53.5463 4.22925 48.4859 4.22925 29.69C4.22925 16.6528 3.80589 12.7412 2.44143 13.1905C0.44623 13.8475 -0.865312 39.8451 0.67507 48.1887C2.70889 59.1997 15.9573 63.8706 23.602 56.2692C28.2618 51.6382 28.2346 43.6202 23.5048 26.36C19.5129 11.7928 20.1036 6.6371 26.012 4.46447C30.5001 2.81367 36.9978 5.3503 37.8087 9.06994C38.1749 10.7506 38.6526 18.9833 38.8728 27.3653C39.3148 44.297 40.4819 46.8023 48.1909 47.354C52.1513 47.6384 52.4187 47.9228 50.6066 49.9191C49.4853 51.1533 48.5671 52.9136 48.5671 53.8293C48.5671 56.9418 52.2829 55.5085 57.1486 50.5177L62 45.5411L57.1486 40.5646C52.2829 35.5738 48.5671 34.1405 48.5671 37.253C48.5671 38.1687 49.6326 40.0882 50.9341 41.5186C53.1553 43.9586 53.1181 44.1193 50.3206 44.1193C44.0432 44.1193 42.8461 40.7921 42.8461 23.3357C42.8461 7.90968 42.6544 6.83048 39.3348 3.53172C35.5232 -0.259011 27.2248 -1.17612 22.3305 1.65199Z" fill="#28C0C1"/>
</svg>
