<svg width="128" height="128" viewBox="0 0 128 128" fill="none" xmlns="http://www.w3.org/2000/svg">
<path fill-rule="evenodd" clip-rule="evenodd" d="M1.26409 0.845928C0.56875 1.54243 0 29.6062 0 63.2099C0 112.731 0.461776 124.692 2.43903 126.336C4.18094 127.785 22.4237 128.23 66.1783 127.894L127.479 127.424V122.959V118.495L69.113 118.023L10.7456 117.553L10.2767 59.088C9.81496 1.77102 9.73473 0.613761 6.16711 0.102991C4.16489 -0.184541 1.95943 0.151209 1.26409 0.845928ZM108.614 29.0651C102.32 39.3966 96.6163 47.8725 95.9423 47.9011C95.2684 47.9279 92.1233 44.3346 88.9551 39.9145C85.7851 35.4944 81.8002 31.8779 80.0993 31.8779C78.1167 31.8779 74 37.0124 68.6423 46.1652C64.0442 54.0214 59.6136 60.865 58.797 61.3704C57.9805 61.8758 54.7106 58.6612 51.5317 54.2268C48.3527 49.7924 44.4499 46.1652 42.8578 46.1652C39.3454 46.1652 20.9885 73.9682 21.773 78.099C22.0761 79.6885 23.9981 81.2315 26.0449 81.5262C28.8993 81.9352 31.1654 79.7492 35.7635 72.1502C39.0619 66.6978 42.3443 62.2384 43.0557 62.2384C43.7688 62.2384 46.9442 65.8548 50.1125 70.275C53.2825 74.6951 57.2673 78.3116 58.9682 78.3116C60.9508 78.3116 65.0676 73.1771 70.4252 64.0243C75.0234 56.1681 79.4539 49.3245 80.2705 48.819C81.0871 48.3136 84.3569 51.5283 87.5359 55.9627C90.7148 60.3971 94.6462 64.0243 96.2722 64.0243C99.8184 64.0243 128.798 18.4764 127.983 14.1849C127.685 12.6204 125.781 11.1006 123.75 10.8095C120.773 10.3809 117.847 13.9081 108.614 29.0651Z" fill="#28C0C1"/>
</svg>
