<svg width="128" height="133" viewBox="0 0 128 133" fill="none" xmlns="http://www.w3.org/2000/svg">
<path fill-rule="evenodd" clip-rule="evenodd" d="M48.248 7.44213C39.9729 17.429 42.8626 31.6334 54.6872 39.0929C73.1265 50.7273 93.8914 24.5099 79.7519 7.44213C71.5354 -2.48071 56.4646 -2.48071 48.248 7.44213ZM55.7302 16.1599C50.249 25.0537 62.5791 35.2485 69.9229 27.8903C76.0641 21.7372 72.2219 10.3641 64 10.3641C61.419 10.3641 57.6992 12.9714 55.7302 16.1599ZM31.5063 66.1154C25.5354 76.2462 16.0364 86.0091 10.3955 87.8007C-5.91524 92.9887 -1.95064 102.688 14.7645 98.486C22.8055 96.4652 29.6863 94.407 30.0535 93.9111C30.4154 93.4153 34.6726 85.2146 39.5153 75.681C46.4387 62.0418 51.6485 58.352 64 58.352C76.3514 58.352 81.5613 62.0418 88.4847 75.681C93.3274 85.2146 97.5846 93.4153 97.9465 93.9111C98.3137 94.407 105.195 96.4652 113.235 98.486C129.951 102.688 133.915 92.9887 117.605 87.8007C111.964 86.0091 102.465 76.2462 96.4937 66.1154C86.9521 49.9008 83.046 47.688 64 47.688C44.954 47.688 41.0479 49.9008 31.5063 66.1154ZM27.3608 99.2858C-1.2269 126.17 6.19141 133 64 133C122.341 133 129.323 126.202 99.2822 98.6353C81.0717 81.9248 79.9648 81.5889 79.9648 92.7701C79.9648 100.406 85.1747 107.193 94.5992 111.837C109.122 118.988 109.138 119.062 96.829 121.12C89.4798 122.347 81.8008 119.601 77.9958 114.381C73.1265 107.716 67.7358 106.58 55.81 109.721L40.0528 113.869L56.0176 117.473C69.2205 120.454 67.3792 121.152 45.3744 121.536C21.1877 121.957 19.6817 121.302 28.8348 114.359C34.3693 110.163 41.1916 105.961 43.9908 105.023C46.7899 104.09 48.2427 98.6033 47.2263 92.8341C45.5447 83.3005 43.7353 83.887 27.3608 99.2858Z" fill="#28C0C1"/>
</svg>
