<svg width="46" height="44" viewBox="0 0 46 44" fill="none" xmlns="http://www.w3.org/2000/svg">
<path fill-rule="evenodd" clip-rule="evenodd" d="M13.4492 1.03412C12.3492 1.63512 10.8872 2.83312 10.1992 3.69412C8.70919 5.56212 8.52419 10.8791 9.94919 10.8791C10.4992 10.8791 10.9492 9.82412 10.9492 8.53412C10.9492 5.70412 13.8252 2.87912 16.7052 2.87912C17.8592 2.87912 19.7432 4.07312 20.8902 5.53212C22.0382 6.99112 23.2372 7.92512 23.5542 7.60712C24.7722 6.38912 22.6812 2.79212 19.9282 1.36812C16.5402 -0.383877 16.0842 -0.406877 13.4492 1.03412ZM30.1312 7.37912C27.7822 9.35612 26.0542 9.87912 21.8702 9.87912C15.3752 9.87912 8.45219 13.0031 5.99619 17.0421C4.41919 19.6351 4.10119 19.7671 2.90419 18.3251C1.88519 17.0971 1.83719 16.2881 2.70019 14.9061C4.07219 12.7091 3.14919 11.4681 1.29119 13.0101C-0.683809 14.6491 -0.341808 18.5301 1.96619 20.6801C3.07519 21.7131 3.90319 23.4181 3.80719 24.4691C3.42319 28.6661 4.06219 30.8601 6.52219 33.7841C8.21319 35.7931 8.88519 37.5051 8.48219 38.7751C8.05919 40.1081 8.57219 41.2021 10.1312 42.2941C13.0982 44.3721 15.6512 44.3041 16.8232 42.1151C17.5682 40.7221 18.7502 40.4281 22.4302 40.7211C25.2122 40.9421 27.3092 41.6541 27.6282 42.4851C28.8452 45.6561 35.9382 43.1951 35.9662 39.5941C35.9762 38.3761 37.1012 36.3191 38.4662 35.0241C39.8322 33.7291 40.9492 32.2981 40.9492 31.8441C40.9492 31.3901 41.9622 30.8741 43.1992 30.6991C45.1522 30.4211 45.4492 29.7841 45.4492 25.8791C45.4492 21.9741 45.1522 21.3371 43.1992 21.0591C41.9622 20.8841 40.9492 20.0621 40.9492 19.2331C40.9492 18.4031 39.5872 16.3631 37.9232 14.6991C35.3442 12.1211 34.9912 11.1711 35.5342 8.27612C36.3292 4.04112 34.4662 3.73112 30.1312 7.37912ZM29.9462 10.8851C29.0462 12.5661 28.2322 12.7881 24.9062 12.2561C15.2492 10.7121 5.94919 16.9981 5.94919 25.0691C5.94919 28.0191 6.72719 30.2101 8.68419 32.7761C10.1882 34.7481 11.2752 37.2151 11.0982 38.2581C10.8082 39.9701 12.3682 41.8241 14.1322 41.8641C14.5072 41.8721 15.1002 40.9791 15.4492 39.8791C15.9892 38.1771 16.9622 37.8791 21.9812 37.8791C26.7622 37.8791 28.0722 38.2401 28.9012 39.7891C30.1282 42.0821 34.4032 41.5041 33.5062 39.1671C32.7922 37.3061 39.8702 28.9551 42.1992 28.9121C44.8952 28.8611 44.6602 22.8791 41.9622 22.8791C40.6612 22.8791 39.5012 21.7431 38.5992 19.5831C37.8422 17.7711 36.0742 15.5361 34.6712 14.6161C32.8712 13.4371 32.2762 12.3451 32.6512 10.9121C33.3362 8.29012 31.3452 8.27012 29.9462 10.8851ZM32.4492 21.8791C31.6122 23.2331 32.7412 24.8791 34.5082 24.8791C35.3012 24.8791 35.9492 23.9791 35.9492 22.8791C35.9492 20.8091 33.5362 20.1191 32.4492 21.8791Z" fill="#D8DDDB"/>
</svg>
