<svg width="143" height="143" viewBox="0 0 143 143" fill="none" xmlns="http://www.w3.org/2000/svg">
<path fill-rule="evenodd" clip-rule="evenodd" d="M5.60395 1.77798C2.54544 4.83399 2.17569 53.3284 5.21267 53.3284C6.38653 53.3284 11.7461 50.2007 17.1201 46.3771C22.7381 42.3813 34.4122 38.9522 44.5964 38.3066L62.305 37.1875V19.2532V1.31886L35.2199 0.285847C20.3222 -0.284465 6.9968 0.389865 5.60395 1.77798ZM79.9596 4.37846C78.8719 7.21208 78.4914 15.7524 79.116 23.3601L80.254 37.1875L97.9625 38.3066C108.147 38.9522 119.821 42.3813 125.439 46.3771C130.813 50.2007 136.241 53.3284 137.504 53.3284C138.768 53.3284 139.324 41.628 138.746 27.3236L137.691 1.31886L109.816 0.2715C88.1803 -0.542718 81.4961 0.375519 79.9596 4.37846ZM10.2528 22.8401C10.2528 37.9981 14.2015 43.5219 19.2273 35.3941C20.4478 33.4213 29.4259 31.8072 39.183 31.8072H56.9203V19.2532V6.69916H33.5865H10.2528V22.8401ZM85.6387 19.2532V31.8072H103.376C113.133 31.8072 122.111 33.4213 123.332 35.3941C128.357 43.5219 132.306 37.9981 132.306 22.8401V6.69916H108.972H85.6387V19.2532ZM26.6618 58.9634C15.1816 70.4377 23.3125 92.7839 38.9712 92.7839C48.1863 92.7839 56.9203 83.1855 56.9203 73.0562C56.9203 62.9268 48.1863 53.3284 38.9712 53.3284C35.306 53.3284 29.767 55.8643 26.6618 58.9634ZM91.2783 58.9634C79.7981 70.4377 87.929 92.7839 103.588 92.7839C119.246 92.7839 127.377 70.4377 115.897 58.9634C108.692 51.7645 98.483 51.7645 91.2783 58.9634ZM32.5562 64.7633C26.6654 70.6458 27.0818 76.6287 33.766 82.174C41.7282 88.7738 53.2371 77.6007 47.6298 68.7196C42.5862 60.7317 37.8368 59.4835 32.5562 64.7633ZM97.1692 64.7633C91.2819 70.6458 91.6983 76.6287 98.3825 82.174C106.345 88.7738 117.854 77.6007 112.246 68.7196C107.203 60.7317 102.453 59.4835 97.1692 64.7633ZM21.514 106.095C7.58194 113.502 -2.64542 128.699 0.606943 137.168C2.47005 142.017 8.9317 143 38.9712 143C78.854 143 83.8833 140.102 74.4816 122.548C64.1465 103.25 40.6118 95.9403 21.514 106.095ZM88.3311 103.993C72.2739 110.069 77.0232 113.936 97.8943 111.784C115.398 109.976 118.256 110.7 126.613 119.051C140.879 133.305 138.499 135.826 110.767 135.826C96.4081 135.826 85.6387 137.365 85.6387 139.413C85.6387 141.486 97.0435 143 112.674 143C142.832 143 147.936 139.047 139.098 122.548C129.779 105.148 107.142 96.8765 88.3311 103.993ZM15.4759 119.524C10.6297 124.366 6.66295 130.016 6.66295 132.078C6.66295 134.406 18.8898 135.826 38.9712 135.826C59.0526 135.826 71.2795 134.406 71.2795 132.078C71.2795 130.016 67.3128 124.366 62.4665 119.524C55.9833 113.043 49.7765 110.718 38.9712 110.718C28.1659 110.718 21.9591 113.043 15.4759 119.524Z" fill="#28C0C1"/>
</svg>
