<svg width="105" height="120" viewBox="0 0 105 120" fill="none" xmlns="http://www.w3.org/2000/svg">
<path fill-rule="evenodd" clip-rule="evenodd" d="M1.48641 2.08927C-4.44005 7.99442 6.73691 9.9617 46.211 9.9617H89.5167V18.5177C89.5167 29.281 84.1089 39.9676 74.903 47.3999C65.3825 55.0856 40.0402 55.1256 29.1912 47.4732C20.9189 41.6381 20.9223 41.6381 43.5539 39.9709C56.0059 39.054 66.1823 36.8033 66.1689 34.9694C66.1521 33.1322 54.8614 31.1982 41.0174 30.6614C27.2001 30.1246 15.896 28.2507 15.896 26.4935C15.896 24.7362 13.6372 23.2991 10.8764 23.2991C8.11562 23.2991 5.85681 24.1227 5.85681 25.133C5.85681 30.2346 17.4889 48.9937 23.6797 53.8719L30.7406 59.4336L21.6418 68.4997C16.6355 73.4846 10.8965 83.7344 8.88529 91.2767C6.87411 98.819 3.95271 107.455 2.39329 110.466C0.833867 113.477 0.472456 116.855 1.5935 117.968C4.92316 121.286 102.34 120.266 104.432 116.891C105.492 115.184 105.024 112.967 103.398 111.963C101.768 110.959 99.4655 104.104 98.2842 96.7284C95.915 81.9772 89.5167 78.3461 89.5167 91.7535V100.189L79.1964 92.5871C71.8042 87.1421 64.2915 84.9848 52.7063 84.9848C41.1211 84.9848 33.6085 87.1421 26.2163 92.5871C20.5408 96.7684 15.896 98.569 15.896 96.5884C15.896 89.7363 26.0322 73.4979 32.4439 70.0802C40.6894 65.6822 68.4009 65.6088 71.1115 69.9802C72.2493 71.8141 76.3352 73.3145 80.1936 73.3145C86.9835 73.3145 87.0169 73.1045 81.1808 66.6792C75.338 60.2472 75.4284 59.7704 84.0118 51.2144C88.8842 46.3596 94.5162 36.2198 96.5274 28.6775C98.5386 21.1351 101.46 12.4991 103.019 9.48822C104.579 6.47729 104.94 3.09958 103.819 1.98591C101.099 -0.728261 4.21373 -0.628229 1.48641 2.08927ZM30.3056 101.55L20.9156 109.782H52.7063H84.4971L75.1071 101.55C68.5649 95.8148 61.7751 93.3207 52.7063 93.3207C43.6376 93.3207 36.8478 95.8148 30.3056 101.55Z" fill="#28C0C1"/>
</svg>
