<svg width="1028" height="537" viewBox="0 0 1028 537" fill="none" xmlns="http://www.w3.org/2000/svg">
<path fill-rule="evenodd" clip-rule="evenodd" d="M741.688 3.521C738.665 6.544 738.255 7.498 738.787 10.271C739.632 14.671 743.627 18 748.065 18C752.831 18 758.409 12.637 758.409 8.05499C758.409 3.39999 754.587 0 749.354 0C745.945 0 744.584 0.624996 741.688 3.521ZM744.909 3.19501C742.279 4.68601 741.443 6.019 741.424 8.75C741.403 11.846 744.833 15 748.222 15C752.136 15 756.877 10 756.058 6.737C755.067 2.787 749.017 0.866007 744.909 3.19501ZM744.909 40.154C741.059 40.64 732.017 43.054 724.816 45.519C707.934 51.297 699.844 51.597 684.909 47C673.218 43.401 665.884 43.164 655.472 46.05C645.262 48.879 638.92 52.06 628.336 59.66C615.412 68.94 608.959 71.868 596.625 74.05C578.334 77.286 570.918 82.483 557.952 101.152C537.167 131.078 519.322 148.466 508.097 149.732C504.058 150.187 503.368 149.937 500.845 147.105C495.385 140.977 486.616 140.807 476.617 146.633C468.724 151.232 465.372 157.981 463.906 172.227C463.108 179.985 460.256 187.886 455.865 194.501C453.856 197.527 451.858 200.222 451.426 200.489C450.994 200.757 450.135 198.971 449.519 196.521C447.486 188.449 442.167 185.691 428.409 185.573C415.059 185.458 410.364 188.02 401.973 199.996C393.63 211.902 388.427 213.677 379.772 207.567C366.077 197.9 362.146 196.696 354.833 199.931C352.418 200.999 348.935 203.023 347.092 204.428C342.684 207.791 338.915 208.412 333.319 206.698C328.344 205.174 326.682 205.723 324.637 209.563C322.194 214.153 328.916 219.995 336.644 219.998C338.698 219.999 345.046 218.438 350.751 216.53C356.455 214.621 362.2 213.265 363.516 213.517C368.389 214.447 371.27 216.249 372.454 219.109C373.124 220.725 374.4 222.473 375.29 222.993C376.442 223.666 375.216 223.948 371.044 223.97C365.576 223.998 364.95 224.25 361.794 227.695C359.932 229.728 358.409 231.681 358.409 232.035C358.409 233.11 353.329 235.069 352.257 234.406C351.653 234.033 351.385 234.921 351.582 236.644C351.844 238.935 352.466 239.564 354.724 239.823C356.272 240 358.691 239.39 360.101 238.466C361.51 237.543 365.194 236.562 368.286 236.286C373.546 235.817 374.264 236.031 379.409 239.594C385.465 243.789 393.028 246.226 397.321 245.368C399.906 244.851 400.184 245.125 401.374 249.375C402.481 253.329 402.424 254.508 400.947 258.219C394.378 274.719 377.833 288.273 357.322 293.957C353.267 295.081 349.623 296 349.224 296C348.826 296 348.217 294.313 347.871 292.25C346.581 284.552 344.182 279.023 340.137 274.428C334.089 267.557 326.23 264.491 309.409 262.44C301.956 261.532 300.656 260.662 299.387 255.733C297.212 247.29 296.292 245.223 292.988 241.364C291.139 239.204 287.228 236.131 284.296 234.535C279.464 231.905 278.158 231.651 270.309 231.819L261.653 232.003L257.944 227.478C253.111 221.58 247.571 218.82 239.386 218.232C233.407 217.803 232.029 218.119 222.886 222.022C215.545 225.156 210.821 226.494 205.008 227.088C198.494 227.753 196.484 228.399 193.562 230.764C189.015 234.444 187.826 238.417 190.477 241.068C193.209 243.8 196.911 243.472 203.165 239.943C210.549 235.775 216.701 235.206 221.867 238.213C227.968 241.764 231.694 247.796 232.212 254.958C232.976 265.514 232.872 265.631 222.687 265.581C215.738 265.547 212.18 266.107 205.607 268.269C201.041 269.771 195.293 271 192.832 271C188.739 271 187.8 270.481 181.799 264.898L175.24 258.796L167.553 259.148C161.345 259.432 158.592 260.127 153.247 262.759C145.679 266.485 142.758 270.718 143.827 276.413C144.305 278.961 143.959 280.055 142.17 281.667C138.505 284.967 137.63 285.166 134.317 283.452C128.704 280.55 120.755 283.479 110.755 292.133C108.155 294.384 103.152 297.599 99.6379 299.277C88.7529 304.477 82.8789 314.629 85.3439 323.982C87.5749 332.447 92.8279 336.869 98.2639 334.858C101.35 333.716 102.445 330.106 101.279 324.917C99.9849 319.157 100.816 316.358 104.367 314.522C106.553 313.391 107.962 313.26 109.918 314.003C115.253 316.032 118.728 315.255 121.168 311.488C122.842 308.903 124.137 308 126.168 307.998C128.892 307.996 128.907 308.035 128.568 314.044C128.298 318.82 127.72 320.598 125.818 322.5C122.895 325.423 122.841 326.176 125.388 328.481C128.004 330.849 134.803 330.859 137.41 328.499C138.488 327.524 139.622 325.1 139.93 323.113C141.104 315.54 142.472 312.332 145.962 308.972C149.359 305.7 149.497 305.654 148.362 308.173C146.276 312.804 147.917 317.5 153.101 321.736C155.635 323.806 158.416 326.288 159.281 327.25C161.098 329.272 164.47 329.539 166.209 327.8C168.18 325.829 167.576 320.709 164.909 316.785C163.534 314.762 162.409 311.798 162.409 310.199C162.409 306.738 166.131 302.359 169.87 301.42C177.584 299.484 193.147 304.363 192.71 308.58C192.601 309.636 192.214 312.563 191.849 315.084C190.671 323.232 195.45 329.071 203.387 329.18C206.415 329.222 208.209 328.601 210.063 326.869C212.262 324.814 212.521 323.925 212.012 320.169C211.689 317.787 211.887 314.975 212.452 313.919C213.242 312.443 213.149 312 212.051 312C210.189 312 209.409 314.18 209.409 319.382C209.409 324.712 208.096 326 202.661 326C193.439 326 190.266 315.962 197.181 308.664C198.83 306.924 201.154 303.25 202.345 300.5C207.659 288.234 221.527 280.95 238.653 281.428C247.914 281.686 253.728 284.336 259.763 291.048C265.237 297.138 267.999 302.961 268.628 309.742C269.072 314.53 268.837 315.31 265.916 318.742C260.105 325.572 259.567 327.94 262.42 334.148C264.093 337.787 261.962 344.098 253.694 360C241.495 383.463 220.244 413.159 204.26 429.08C197.565 435.748 184.159 446 182.134 446C181.606 446 179.635 444.65 177.756 443C174.877 440.472 173.503 440 169.029 440C163.407 440 161.306 441.332 159.96 445.75C159.331 447.812 159.595 448 163.119 448C168.209 448 170.875 450.036 172.97 455.52C174.354 459.143 175.067 459.926 176.554 459.454C179.45 458.535 184.218 462.542 185.295 466.8C187.991 477.461 181.998 488.048 175.058 484.886C173.031 483.962 172.495 482.804 171.935 478.135C169.614 458.784 156.405 450.929 140.279 459.311C136.776 461.133 130.527 464.707 126.393 467.255C118.316 472.233 111.404 474.349 106.457 473.36C102.907 472.65 102.444 472.09 101.331 467.154C99.4859 458.975 106.491 451.118 114.487 452.397C117.742 452.917 118.546 452.641 120.31 450.399C124.528 445.037 123.899 437.103 118.946 433.208C117.194 431.83 116.843 430.723 117.196 427.697C117.505 425.056 117.125 423.344 115.942 422.037C114.341 420.268 114.363 420.046 116.328 418.081C118.878 415.531 124.448 415.324 127.995 417.648C131.019 419.63 133.409 423.957 133.409 427.45C133.409 428.853 133.804 430 134.287 430C137.254 430 139.263 421.116 137.502 415.78C136.107 411.556 130.725 406.184 127.392 405.691C125.84 405.461 124.392 404.232 123.53 402.412C122.771 400.81 121.341 398.6 120.353 397.5C119.059 396.06 118.571 393.942 118.612 389.938C118.684 382.883 115.775 376.109 111.307 372.928C108.767 371.119 106.301 370.446 101.137 370.154C95.0859 369.813 93.6039 370.122 87.9429 372.909C76.9139 378.338 67.4089 391.359 67.4089 401.038C67.4089 405.266 65.6279 404.697 63.3819 399.75C59.8729 392.019 61.1389 377.285 65.5139 374.944C68.4159 373.391 67.7719 371.303 64.1589 370.549C56.6109 368.974 52.3289 368.821 50.8199 370.074C49.9729 370.777 46.8089 371.688 43.7899 372.097C39.5689 372.67 37.0169 373.811 32.7519 377.031C27.7979 380.771 27.2819 380.967 27.9229 378.86C30.2269 371.289 38.4359 365.739 47.5279 365.606C52.5369 365.532 53.3139 365.231 54.6909 362.831C56.7739 359.202 65.6309 354.295 71.5719 353.478C77.5009 352.662 77.8449 351.347 72.2679 350.815C67.3649 350.348 59.1419 353.385 53.7759 357.646C47.9299 362.288 47.2059 362.65 46.6779 361.194C45.4879 357.91 39.5429 351.487 35.9989 349.657C30.5399 346.838 22.4519 346.33 16.8829 348.457C14.4219 349.397 12.4089 350.578 12.4089 351.083C12.4089 352.286 12.5199 352.269 16.9909 350.401C22.3429 348.165 30.3789 349.053 35.5069 352.446C39.7179 355.233 43.8379 362.009 41.7509 362.714C41.1139 362.929 38.5169 364.48 35.9789 366.161C30.7549 369.621 27.1119 375.175 25.2619 382.5C22.7719 392.356 12.8349 404.044 0.852892 411.211C-4.81411 414.601 -5.87011 416 -2.76211 416C2.2109 416 17.3249 402.62 22.4059 393.72C28.1369 383.68 38.7239 374.544 43.8959 375.175L46.5589 375.5L41.3389 383C30.5179 398.548 18.7059 410.69 8.65889 416.592C2.6899 420.098 0.936893 422 3.67189 422C5.54689 422 15.1989 415.346 20.9089 410.117C27.6849 403.911 36.8109 392.978 42.2909 384.5C48.3629 375.107 52.4609 371 55.7599 371C57.2169 371 58.4089 371.477 58.4089 372.059C58.4089 372.641 58.8279 372.859 59.3399 372.543C60.9869 371.525 61.2739 373.452 59.8569 376.013L58.4799 378.5L58.3779 376C58.2959 374.003 58.0199 374.305 57.0069 377.5C54.0619 386.787 45.2979 400.699 33.4319 414.922C27.9129 421.538 14.9939 432 12.3429 432C10.3079 432 9.7349 433.465 11.3749 434.479C13.4119 435.738 21.2519 430.385 29.4829 422.115C38.6509 412.903 49.0599 398.108 54.7569 386.193L58.2509 378.886V386.813C58.2509 391.174 58.7879 396.532 59.4429 398.72C60.4749 402.165 60.3729 403.291 58.6779 407.1C52.4289 421.15 27.0289 447.049 17.0409 449.556C15.5929 449.92 14.4089 450.591 14.4089 451.049C14.4089 455.306 26.4849 448.809 36.7499 439.031C45.9949 430.223 55.6229 417.8 59.4409 409.752C61.7459 404.892 62.3589 404.235 63.4109 405.502C65.9609 408.575 68.1379 407.295 68.8899 402.281C69.7279 396.692 73.2479 389.392 77.3669 384.701C80.9239 380.649 88.1949 375.453 89.0749 376.333C90.2289 377.487 86.5349 389.912 82.8539 397.254C74.2839 414.348 63.2059 427.705 52.7449 433.555C39.9139 440.73 34.0779 450.079 34.1759 463.302C34.2339 471.195 37.5789 481.871 40.9989 485.085C42.8149 486.791 43.5999 486.968 45.3029 486.057C48.4209 484.388 48.8939 480.508 46.9739 472.361C45.5839 466.466 45.4679 464.35 46.3839 461.576C47.7039 457.575 50.7569 453.419 53.4239 451.992C55.1049 451.093 55.2309 451.321 54.7379 454.361C53.6149 461.283 58.4459 464.559 61.6009 459.015C65.2529 452.595 75.5019 449.928 82.5369 453.566C85.6599 455.181 88.4129 460.181 88.4029 464.218C88.3939 468.237 86.3599 474 84.9509 474C84.2009 474 82.4219 475.385 80.9979 477.077C78.0429 480.588 77.5099 486.409 79.8539 489.559C81.2539 491.44 81.3899 491.401 84.2579 488.293C88.9609 483.197 95.4819 482.677 99.1919 487.103C102.074 490.541 103.941 491.1 107.517 489.596C110.483 488.349 111.231 488.423 115.26 490.358C118.481 491.905 119.836 492.161 120.138 491.282C120.367 490.612 122.099 489.774 123.986 489.42C128.872 488.503 131.966 490.843 133.623 496.708C135.461 503.219 138.5 504.953 144.552 502.945C150.476 500.98 158.494 501.17 161.828 503.355C165.227 505.582 168.4 510.746 168.405 514.059C168.407 515.466 169.052 517.491 169.838 518.559C171.189 520.396 171.304 520.404 171.961 518.706C173.884 513.746 170.031 505.784 163.865 501.973C160.331 499.788 158.753 499.671 141.909 500.341C137.994 500.497 137.877 500.401 136.409 495.878C133.754 487.696 129.682 485.215 122.842 487.608C119.821 488.665 118.269 488.725 116.148 487.866C114.607 487.242 111.626 487.03 109.404 487.385C106.001 487.929 104.817 487.584 101.265 485.011C98.5839 483.069 95.9019 482 93.7089 482C89.9919 482 84.6169 484.389 82.6779 486.904C81.5909 488.314 81.3249 488.325 80.4009 487C78.1069 483.711 81.6719 476 85.4859 476C89.3139 476 91.2619 461.477 88.0839 456.627C82.7259 448.449 70.5409 447.445 62.7919 454.543C60.7159 456.445 58.6559 458 58.2139 458C56.5719 458 57.4809 453.552 59.5799 451.318C62.3359 448.384 61.8009 447.897 57.0089 448.978C52.1439 450.075 46.8959 455.114 45.1059 460.407C43.6609 464.68 43.7309 467.581 45.4539 474.843C46.7739 480.405 45.9369 483.217 43.0819 482.808C40.1049 482.382 38.2359 477.943 37.3879 469.282C35.9829 454.938 39.9929 445.259 50.2119 438.326C58.4379 432.744 65.1419 431.32 75.9609 432.856C87.3589 434.475 89.4789 434.316 93.5699 431.537C98.8569 427.944 101.834 421.235 101.056 414.667C100.361 408.794 98.3649 406.667 94.1149 407.27C90.0509 407.847 89.8999 406.505 93.6249 402.938C100.453 396.4 109.074 394.224 115.329 397.459C116.965 398.305 119.046 400.824 120.285 403.459C121.897 406.889 122.975 408 124.692 408C128.987 408 132.615 411.744 134.421 418.042C135.185 420.707 135.076 420.667 131.311 416.902C129.165 414.756 126.846 412.967 126.159 412.926C125.471 412.885 123.881 412.66 122.624 412.427C119.379 411.823 113.86 414.382 111.877 417.409C109.842 420.515 110.615 425.519 112.989 424.608C115.467 423.657 115.738 426.73 113.457 429.932L111.319 432.935L114.783 434.383C120.307 436.691 122.109 442.475 118.854 447.444C117.593 449.368 116.467 449.805 112.905 449.751C107.629 449.671 102.556 453.063 100.05 458.345C96.8139 465.163 99.1169 473.292 104.594 474.387C113.894 476.247 121.126 474.441 131.853 467.579C144.414 459.544 150.497 457.408 156.339 458.981C159.789 459.91 167.349 466.566 167.44 468.753C167.745 476.124 169.726 484.709 171.579 486.68C173.805 489.05 179.514 489.855 182.163 488.173C185.768 485.884 188.409 480.507 188.409 475.455C188.409 466.574 185.352 460.601 179.159 457.379C177.647 456.592 176.409 455.388 176.409 454.702C176.409 454.017 175.026 451.778 173.336 449.728C171.039 446.94 169.244 445.837 166.222 445.354C162.929 444.828 162.501 444.528 163.914 443.737C167.966 441.47 178.409 444.857 178.409 448.439C178.409 450.506 183.745 452.951 185.776 451.814C190.208 449.334 201.242 454.792 204.429 461.04C207.446 466.953 207.888 472.751 205.976 481.344C204.444 488.23 204.435 489.149 205.871 491.926C206.735 493.598 208.779 495.657 210.413 496.502C213.087 497.885 213.753 497.883 217.11 496.48C222.473 494.24 226.479 494.371 231.835 496.964C237.144 499.534 240.327 503.794 242.883 511.75C244.635 517.204 245.737 518.193 246.845 515.307C247.761 512.92 242.007 501.681 238.251 498.521C236.55 497.089 235.327 495.803 235.533 495.663C235.74 495.523 239.734 493.777 244.409 491.782C264.945 483.02 282.199 471.244 298.991 454.527C316.201 437.396 324.844 424.401 331.08 406.283C333.287 399.869 333.772 396.653 333.834 388C333.902 378.426 333.661 376.994 331.091 371.761C326.672 362.763 315.235 355 306.398 355C303.054 355 302.593 353.922 305.063 351.872C306.13 350.987 309.233 350.509 313.813 350.526C321.867 350.556 325.732 352.134 331.659 357.813C334.957 360.973 335.409 361.157 335.409 359.339C335.409 354.111 325.131 348.076 315.862 347.863L310.115 347.73L312.503 345.929C316.11 343.208 326.062 340.717 330.286 341.477C339.613 343.156 347.004 349.695 347.621 356.814C347.894 359.951 347.653 360.218 343.105 361.814C336.7 364.061 333.409 367.332 333.409 371.45C333.409 375.524 336.045 378 340.382 378H343.697L343.013 386.198C342.19 396.06 338.83 406.384 332.499 418.5C314.889 452.2 292.875 478.619 268.409 495.415C254.46 504.991 253.301 506.015 260.409 502.478C281.309 492.079 301.082 473.159 318.538 446.858C338.03 417.49 345.409 400.18 345.409 383.821V376.962L348.159 377.601C352.686 378.653 353.635 380.7 352.893 387.821C352.283 393.675 352.444 394.443 355.072 398.238C360.743 406.428 358.218 416.951 346.338 434.643C327.436 462.792 307.652 482.643 280.202 501.002C273.214 505.676 267.963 509.662 268.535 509.861C270.077 510.396 283.015 503.749 290.044 498.81C315.306 481.061 340.973 451.8 353.65 426.298C360.066 413.39 361.051 406.023 357.374 398.428C355.606 394.776 355.157 392.264 355.313 386.91C355.423 383.144 355.057 379.21 354.499 378.168C352.985 375.339 347.986 373.649 343.11 374.317C337.967 375.022 336.124 374.055 336.572 370.887C337.11 367.081 345.616 362.825 351.692 363.322C357.341 363.784 360.361 366.203 362.902 372.305C366.202 380.232 366.727 380.95 370.014 382.035C376.624 384.216 381.409 393.012 381.409 402.984C381.409 415.935 372.482 436.565 359.551 453.5C346.175 471.016 330.998 483.874 304.159 500.427C299.897 503.056 296.409 505.426 296.409 505.693C296.409 506.626 315.989 495.736 325.572 489.474C341.367 479.152 356.88 463.143 368.667 445C379.995 427.565 385.204 408.962 382.46 395.743C380.974 388.588 377.948 384.116 372.588 381.157C369.159 379.264 367.801 377.614 365.508 372.558C362.693 366.35 358.393 361.986 353.681 360.556C352.191 360.103 351.052 358.541 350.242 355.838C349.576 353.615 347.078 349.624 344.691 346.969C339.215 340.878 332.874 338.499 324.214 339.284C314.632 340.153 308.769 343.719 298.34 355.021C293.309 360.473 288.342 365.204 287.301 365.534C284.489 366.427 282.078 365.339 280.273 362.365C278.861 360.038 278.828 359.096 280.004 354.64C281.858 347.611 284.067 344.994 291.209 341.368C294.601 339.645 298.979 336.829 300.936 335.11C311.978 325.415 333.352 320.37 346.552 324.342C355.726 327.104 367.856 336.564 374.928 346.474C380.197 353.859 382.786 360.209 384.993 371.167C386.173 377.027 387.826 381.421 390.561 385.972C397.209 397.032 398.482 405.937 395.495 420.5C391.807 438.485 384.293 453.465 368.424 474.468C356.826 489.817 345.083 502.121 331.909 512.728C328.513 515.462 329.654 515.07 339.461 510.137C356.607 501.512 363.714 499.885 388.409 498.931C422.746 497.605 439.86 494.543 456.57 486.735C479.287 476.119 498.453 458.815 506.471 441.682C510.194 433.725 512.369 423.648 512.392 414.25C512.405 408.654 512.734 407 513.832 407C514.615 407 516.64 405.835 518.332 404.411C522.112 401.231 522.144 401.567 519.362 414.992C516.521 428.704 512.033 442.06 507.094 451.5C503.953 457.505 500.54 461.895 493.409 469.105C480.327 482.332 473.304 486.14 448.23 493.607C434.812 497.602 430.516 498.48 416.909 500.009C408.261 500.981 391.395 503.87 380.909 506.176C375.23 507.424 362.143 512.067 362.708 512.632C362.913 512.837 365.742 512.083 368.995 510.956C377.284 508.084 401.758 503.369 415.273 502.039C421.523 501.425 429.398 500.294 432.773 499.526C457.777 493.84 463.37 492.077 474.929 486.242C487.821 479.735 499.201 468.936 507.326 455.502C510.074 450.958 514.5 440.412 517.972 430.137C518.336 429.06 518.738 429.028 519.892 429.986C520.694 430.651 522.982 431.243 524.975 431.299L528.6 431.402L527.954 435.451C526.798 442.687 520.29 460.746 516.554 467.085C506.372 484.362 489.962 496.051 463.389 504.953C451.323 508.996 440.96 510.992 426.409 512.077C419.534 512.59 408.838 513.699 402.641 514.542C391.479 516.06 372.676 520.34 371.513 521.627C371.181 521.995 372.034 521.986 373.409 521.609C379.388 519.967 417.158 514.922 430.409 513.995C438.384 513.437 446.934 512.521 449.409 511.959C464.563 508.515 487.244 498.592 497.953 490.72C513.656 479.177 524.823 460.021 529.416 436.75C530.267 432.439 530.978 431 532.257 431C535.101 431 538.19 433.807 539.409 437.499C540.414 440.546 540.201 442.029 537.735 449.135C535.82 454.654 534.318 457.44 533.074 457.778C531.929 458.09 531.654 458.533 532.341 458.958C534.01 459.989 524.228 473.39 515.995 481.353C512.098 485.122 505.984 490.418 502.409 493.122C493.217 500.075 464.096 514.261 452.409 517.48C441.91 520.372 431.165 524.09 431.715 524.64C431.91 524.835 434.059 524.35 436.489 523.563C438.92 522.775 446.96 520.455 454.356 518.405C474.709 512.766 490.379 505.417 503.63 495.297C509.942 490.477 522.917 478.055 526.142 473.746C528.039 471.211 528.904 470.943 537.056 470.369C547.837 469.61 554.815 471.177 566.759 477.041C577.25 482.191 586.687 489.281 603.885 504.931C620.062 519.652 624.204 522.961 631.459 526.96C641.264 532.364 628.791 529.994 615.736 523.972C603.354 518.26 597.993 514.297 583.458 500.106C569.581 486.558 561.591 481.678 547.469 478.124C538.693 475.916 530.348 475.482 526.909 477.056C525.476 477.711 526.355 477.869 530.008 477.613C542.731 476.721 559.171 481.984 569.891 490.381C572.082 492.096 578.804 498.401 584.829 504.392C595.957 515.455 604.761 521.904 614.07 525.812C621.256 528.829 630.048 531 635.082 531C637.421 531 641.618 531.9 644.409 533C653.63 536.635 652.749 535.08 642.75 530.07C629.933 523.649 621.778 517.77 605.909 503.511C588.369 487.751 578.984 480.811 567.967 475.451C556.138 469.697 545.374 467.479 536.338 468.934C532.866 469.493 529.892 469.817 529.729 469.653C529.565 469.49 530.807 467.187 532.489 464.535L535.546 459.714L543.228 460.348C557.52 461.528 571.987 466.414 584.758 474.373C588.864 476.932 597.783 484.308 604.578 490.763C619.12 504.577 631.568 515.14 639.909 520.744C652.114 528.943 671.458 537.051 678.585 536.955C681.27 536.919 680.478 536.447 674.464 534.501C662.784 530.72 645.823 521.746 635.023 513.631C629.586 509.546 618.649 500.214 610.719 492.894C602.79 485.573 593.963 477.809 591.105 475.64C581.283 468.186 563.18 461.075 550.159 459.554C547.547 459.25 543.397 458.749 540.939 458.443L536.469 457.886L538.939 451.324C540.297 447.715 541.409 443.465 541.409 441.881V439L551.159 438.75C573.565 438.175 582.946 439.605 598.239 445.924C613.725 452.322 622.814 458.947 644.573 479.695C653.188 487.91 663.565 496.932 667.634 499.745C689.215 514.663 720.205 526.319 727.019 522.08C728.765 520.994 728.741 520.95 726.691 521.509C723.651 522.339 702.364 515.135 689.909 509.061C672.179 500.417 664.465 494.841 646.367 477.594C632.683 464.552 628.607 460.927 622.409 456.284C610.764 447.561 592.736 439.732 577.997 436.996C571.398 435.771 549.605 436.16 543.845 437.605C542.089 438.046 541.303 437.494 540.018 434.918C539.128 433.134 538.612 431.463 538.872 431.204C540.229 429.846 559.149 429.105 569.909 429.988C583.668 431.116 596.537 434.311 610.028 439.948C622.496 445.158 631.181 450.442 653.738 466.539C678.235 484.021 688.159 490.127 703.553 497.186C726.942 507.912 747.735 513.378 769.262 514.458C777.463 514.87 778.159 514.795 773.909 513.955C716.056 502.529 699.55 495.259 646.909 458.017C626.032 443.247 612.573 436.664 592.293 431.302C581.271 428.388 581.626 428.403 533.967 428.908C528.499 428.966 523.212 428.755 522.217 428.439C519.739 427.653 519.947 424.766 522.659 422.312C526.079 419.217 529.192 418.906 535.291 421.05C542.762 423.676 545.049 423.514 548.444 420.119C552.262 416.301 554.049 415.957 570.173 415.941C593.234 415.918 607.17 420.579 633.903 437.255C652.899 449.105 658.52 452.786 672.409 462.472C707.552 486.979 748.08 506.856 771.386 511.015C781.102 512.748 795.446 512.659 796.809 510.855C797.414 510.055 803.404 507.036 810.12 504.145C829.261 495.908 837.781 496.122 865.909 505.546C908.629 519.861 929.124 523.459 954.45 521.09C968.87 519.741 979.591 516.997 989.994 511.993C1000.7 506.841 1007.47 500.648 1011.63 492.206C1014.69 485.989 1014.91 484.87 1014.86 475.521C1014.83 466.832 1014.38 464.238 1011.52 456C1007.99 445.879 1001.72 433 1000.31 433C999.843 433 998.711 431.538 997.796 429.75C996.881 427.962 994.828 424.925 993.236 423C991.643 421.075 989.873 418.922 989.303 418.216C988.733 417.51 987.235 413.9 985.975 410.194C980.127 393 974.756 384.995 966.458 381.103C961.242 378.656 959.996 378.5 945.693 378.5C932.679 378.5 930.182 378.248 928.443 376.76C927.324 375.803 926.409 374.27 926.409 373.354C926.409 371.146 931.15 365 932.853 365C935.998 365 936.306 357.41 933.315 353.607C931.431 351.212 930.626 350.963 925.298 351.123C919.329 351.302 918.233 350.953 917.758 348.721C916.286 341.807 914.394 337.512 911.445 334.389C906.293 328.93 902.837 327.864 891.067 328.102C885.48 328.215 879.871 327.975 878.602 327.568C874.857 326.368 876.379 323.689 881.913 321.741C888.522 319.415 893.577 320.095 903.167 324.603C909.874 327.756 912.335 328.349 921.58 329.044C927.449 329.485 933.182 330.343 934.32 330.952C936.971 332.371 938.976 336.32 939.917 341.976C941.181 349.58 944.817 352.206 958.478 355.381C973.277 358.819 980.807 362.373 986.145 368.438C991.39 374.396 993.072 379.585 994.431 394C995.028 400.325 995.756 407.918 996.05 410.873C996.957 420.007 1004.77 433.835 1015.06 444.531C1019.81 449.464 1024.52 454.85 1025.55 456.5C1026.68 458.334 1027.4 458.874 1027.4 457.89C1027.41 455.351 1022.82 449.191 1014.29 440.273C1007.56 433.246 1005.18 430 1006.78 430C1006.98 430 1009.77 433.15 1012.98 437C1016.19 440.85 1019.17 444 1019.62 444C1020.62 444 1009.75 430.58 1005.45 426.503C1000.47 421.787 998.206 415.736 997.646 405.643L997.154 396.787L999.623 398.405C1002.97 400.597 1008.19 407.229 1010.02 411.618C1010.85 413.597 1011.77 414.971 1012.07 414.672C1013.33 413.411 1007.31 402.992 1002.59 398.273C998.003 393.689 997.377 392.527 996.476 386.938C994.61 375.351 992.576 370.974 986.111 364.638C979.651 358.308 979.512 358.361 991.673 362.505C1003.81 366.641 1012.23 373.551 1015.94 382.412C1018.05 387.47 1018.59 386.877 1016.76 381.506C1014.4 374.581 1007.53 367.684 998.479 363.155C990.882 359.353 985 357.724 959.983 352.493C944 349.151 942.968 348.395 940.374 338.135C939.767 335.734 938.218 332.718 936.932 331.432L934.595 329.095L939.252 328.297C941.813 327.859 952.459 327.531 962.909 327.568C979.069 327.626 983.059 327.954 989.606 329.764C1001.24 332.98 1008.09 336.577 1011.48 341.256C1014.74 345.754 1015.5 344.502 1012.48 339.618C1005.04 327.593 971.825 321.207 938.679 325.427C922.617 327.473 913.98 326.613 903.815 321.957L897.086 318.875L900.497 316.791C904.366 314.428 914.505 309.75 921.854 306.937C926.232 305.261 926.987 305.213 928.433 306.522C930.997 308.842 935.202 308.326 937.957 305.354C939.305 303.899 940.409 302.383 940.409 301.985C940.409 300.772 957.388 299 969.003 299C989.857 299 1007.14 302.575 1012.58 308.016C1014.13 309.572 1015.41 310.284 1015.41 309.597C1015.41 305.78 1005.99 300.968 993.629 298.476C984.416 296.619 960.777 296.003 948.159 297.292C940.848 298.039 940.409 297.972 940.409 296.114C940.409 293.013 935.518 289.733 931.925 290.424C927.67 291.242 924.231 295.659 924.664 299.75C924.853 301.538 924.59 303 924.08 303C922.401 303 905.032 310.74 898.85 314.243C895.517 316.131 890.678 317.965 888.096 318.319C882.797 319.046 875.582 322.385 874.777 324.484C874.482 325.251 874.683 326.667 875.222 327.63C876.019 329.054 875.266 330.222 871.186 333.89C868.428 336.37 865.212 339.154 864.04 340.075C861.994 341.684 861.903 341.655 861.763 339.354C861.429 333.84 856.941 332.378 852.864 336.455C849.288 340.03 850.034 348 853.944 348C854.75 348 855.409 348.261 855.409 348.579C855.409 348.898 852.597 352.415 849.159 356.396C845.722 360.376 835.492 373.278 826.426 385.067C800.144 419.244 781.325 436.701 760.283 446.423C741.064 455.302 708.664 461.996 684.891 461.999C678.867 462 677.31 461.611 673.891 459.25L669.909 456.5L685.409 455.917C695.058 455.554 703.363 454.687 707.409 453.62C739.685 445.105 757.735 434.624 781.104 410.826C792.784 398.931 800.999 388.782 816.454 367.15C840.665 333.264 853.012 320.837 879.409 303.784C898.597 291.388 916.321 283.419 935.909 278.38C946.025 275.777 948.355 275.552 964.909 275.578C982.307 275.605 983.218 275.709 992.154 278.686C1002.85 282.251 1014.98 289.082 1015.93 292.081C1016.3 293.219 1016.79 293.95 1017.04 293.705C1017.28 293.459 1016.92 292.033 1016.24 290.534C1013.88 285.35 994.699 275.998 981.409 273.55C972.38 271.888 956.634 271.816 946.748 273.393C921.98 277.343 901.387 285.722 876.769 301.867C852.071 318.063 839.064 330.834 818.97 358.613C798.001 387.602 790.579 396.838 778.415 409.081C759.75 427.867 743.21 438.586 721.421 446.018C712.46 449.074 694.413 453.337 693.653 452.577C693.46 452.385 696.504 451.255 700.416 450.066C717.311 444.935 734.679 433.658 752.78 416.065C767.369 401.887 774.964 392.785 795.39 365C816.441 336.365 823.04 328.455 840.427 311.02C866.175 285.2 892.811 268.025 916.477 261.983C942.461 255.348 969.892 258.283 993.877 270.262C1002.45 274.544 1018.1 284.627 1022.79 288.883C1025.06 290.951 1025.45 291.081 1024.61 289.5C1024.03 288.4 1021.27 285.709 1018.48 283.52C1015.69 281.331 1013.41 278.734 1013.41 277.75C1013.41 273.304 1004.91 262.956 996.088 256.669C982.427 246.93 966.213 240.261 949.331 237.438C935.811 235.178 910.137 235.899 896.48 238.923C865.174 245.856 837.521 260.306 816.17 280.888C804.827 291.822 798.671 299.476 790.958 312.229C788.388 316.48 785.975 319.876 785.597 319.776C785.218 319.675 781.814 320.196 778.032 320.934C768.997 322.695 753.266 321.798 743.409 318.959C733.655 316.149 721.105 310.277 712.098 304.309C696.795 294.168 679.047 273.956 677.364 264.754C676.017 257.385 676.262 238.577 677.802 231.191C679.516 222.972 684.149 214.123 692.633 202.863C701.667 190.875 714.544 181.669 726.909 178.361C738.719 175.202 755.955 177.562 764.698 183.536C769.395 186.745 774.409 193.517 774.409 196.65C774.409 197.943 774.746 199 775.159 199C775.572 199 775.684 201.812 775.409 205.25L774.909 211.5L770.724 212.51L766.538 213.52L768.345 215.916C772.491 221.411 783.199 216.785 784.967 208.734C785.342 207.029 787.17 202.866 789.029 199.484C791.151 195.622 792.409 191.958 792.409 189.636C792.409 184.961 793.9 184.345 801.245 185.985C805.708 186.981 807.831 188.169 811.254 191.588C813.644 193.975 815.427 196.446 815.216 197.079C815.005 197.712 812.6 199.075 809.871 200.108C804.207 202.253 802.409 204.196 802.409 208.172C802.409 211.669 805.846 212.785 811.447 211.107C818.995 208.845 823.803 199.9 822.738 190.101C822.293 186.017 822.708 182.925 824.438 177.409C826.662 170.317 826.677 169.991 825.006 165.614C821.644 156.812 809.001 147.603 798.646 146.415C789.909 145.412 789.993 145.465 788.705 140.045C785.789 127.769 774.005 117.647 759.586 115.032C752.026 113.661 744.724 114.793 737.495 118.456C731.208 121.642 728.605 121.639 719.334 118.431C712.98 116.232 710.611 115.917 702.909 116.246C692.246 116.702 685.898 119.293 676.1 127.191C666.121 135.234 663.292 136.301 648.699 137.518C645.283 137.803 640.159 138.478 637.312 139.018C629.651 140.471 629.527 140.35 634.267 136.017C639.526 131.21 643.862 129.869 651.544 130.672C656.02 131.14 657.913 130.9 659.873 129.616C663.097 127.503 663.058 126.976 659.389 123.137C656.413 120.023 656.393 119.931 658.012 116.8C660.7 111.603 669.499 103.571 675.733 100.624C683.969 96.731 692.957 96.117 701.127 98.89C710.827 102.181 714.599 101.41 715.934 95.863C716.844 92.082 713.484 90 706.472 90C701.763 90 701.189 89.803 702.445 88.621C703.25 87.862 707.041 86.251 710.868 85.04C714.695 83.829 719.066 81.956 720.58 80.878C724.025 78.425 735.384 73.723 741.634 72.163C746.63 70.916 759.864 70.538 764.909 71.499C773.437 73.122 785.907 78.521 794.089 84.133C796.388 85.71 799.146 87 800.217 87C805.166 87 805.524 80.172 800.708 77.649L798.032 76.246L801.354 74.528C803.182 73.583 806.819 72.827 809.436 72.847C814.531 72.886 821.409 75.232 821.409 76.93C821.409 77.498 822.552 78.249 823.949 78.599C826.93 79.348 830.409 76.752 830.409 73.779C830.409 68.304 825.304 65.056 815.902 64.548C811.65 64.318 808.563 63.551 806.705 62.264C805.167 61.198 803.086 60.028 802.08 59.664C799.877 58.867 795.221 59.886 795.917 61.013C796.189 61.452 797.258 61.591 798.293 61.32C800.365 60.778 805.349 63.018 807.299 65.367C808.213 66.469 810.448 66.834 815.726 66.744C819.815 66.675 823.899 67.161 825.207 67.872C827.624 69.186 829.82 73.526 828.857 75.084C827.875 76.673 823.52 76.077 822.525 74.217C821.288 71.906 812.937 69.25 808.146 69.643C803.352 70.037 799.147 72.225 797.057 75.414C795.046 78.484 794.973 79.381 796.794 78.682C798.522 78.019 802.409 80.643 802.409 82.473C802.409 85.18 799.795 84.619 793.928 80.654C771.752 65.666 741.93 63.817 724.488 76.348C719.76 79.744 715.28 81.566 705.676 83.997C701.358 85.09 699.409 87.247 699.409 90.934C699.409 92.826 700.001 93 706.44 93C713.869 93 715.998 94.381 713.398 97.513C711.742 99.508 709.505 99.391 701.211 96.871C685.313 92.042 667.786 98.556 658.775 112.642C654.755 118.926 654.578 121.291 657.909 124.187C661.832 127.598 661.035 128.35 654.247 127.641C650.231 127.221 645.058 125.602 639.389 122.991C629.328 118.356 620.971 116.535 614.006 117.459C601.244 119.152 597.851 126.002 606.38 132.857C611.154 136.693 611.852 140.863 608.159 143.483C606.048 144.981 605.817 144.943 604.409 142.874C603.584 141.661 600.884 138.543 598.409 135.947C589.408 126.503 579.427 127.65 570.194 139.188C563.631 147.391 562.241 150.291 558.803 162.971C557.32 168.438 555.406 171.396 552.262 173.079C551.344 173.57 544.343 174.63 536.704 175.434C521.755 177.008 515.909 178.852 509.32 184.071C502.481 189.487 493.063 205.547 490.307 216.491C489.245 220.708 489.344 221.225 491.827 224.481C493.339 226.463 495.865 228.331 497.695 228.819C500.595 229.593 500.884 230.01 500.655 233.088C500.515 234.965 497.928 241.388 494.905 247.362C491.462 254.166 489.409 259.489 489.409 261.612C489.409 265.851 488.332 265.883 484.846 261.75C479.015 254.835 478.5 250.416 482.496 241.616C485.548 234.895 484.692 227.216 480.166 220.719C477.222 216.493 468.72 212.021 463.609 212.009C458.368 211.998 454.296 210.025 452.47 206.614C451.182 204.207 451.341 203.797 455.184 199.628C461.887 192.357 465.911 182.442 467.006 170.5C467.839 161.423 469.182 157.328 472.606 153.428C476.633 148.841 482.369 145.963 488.803 145.299C493.596 144.804 494.235 145.012 498.27 148.384C503.073 152.396 505.832 152.82 512.297 150.539C520.852 147.521 530.574 139.858 550.674 120.291C578.852 92.86 588.509 86.539 610.588 81.079C623.334 77.927 631.387 74.223 642.574 66.366C646.789 63.405 653.764 59.299 658.074 57.241C666.657 53.143 666.786 53.133 699.909 54.031C708.715 54.269 710.805 53.975 717.409 51.565C737.437 44.257 739.582 43.735 751.688 43.237C764.498 42.709 773.418 43.944 779.607 47.101C784.417 49.555 790.238 54.673 792.572 58.5C794.197 61.165 794.402 61.257 794.405 59.328C794.411 55.97 788.451 49.009 782.905 45.895C773.717 40.736 758.508 38.438 744.909 40.154ZM659.909 47.66C658.809 47.895 654.534 49.246 650.409 50.662C643.271 53.112 639.555 55.274 622.508 66.893C614.605 72.279 606.016 75.633 597.909 76.497C580.478 78.354 570.725 85.057 558.76 103.402C556.214 107.306 552.699 112.3 550.949 114.5C544.871 122.142 546.168 121.446 556.011 111.782C575.855 92.299 588.52 84.388 608.485 79.005C621.753 75.428 631.272 71.177 641.565 64.233C656.133 54.406 667.512 50.065 679.053 49.933L684.909 49.866L680.409 48.448C676.225 47.13 664.497 46.679 659.909 47.66ZM832.805 99.47C828.015 101.492 825.409 105.901 825.409 111.981C825.409 116.365 825.855 117.6 828.332 120.077C836.707 128.451 851.958 116.319 847.534 104.802C845.606 99.781 838.318 97.142 832.805 99.47ZM834.824 101.419C830.578 103.271 827.409 107.602 827.409 111.553C827.409 116.242 828.255 117.869 831.591 119.594C837.779 122.794 846.409 116.579 846.409 108.923C846.409 105.172 843.82 101 841.491 101C840.986 101 839.973 100.791 839.241 100.536C838.508 100.282 836.521 100.679 834.824 101.419ZM745.409 118.039C742.934 118.554 738.801 119.881 736.224 120.988C730.073 123.629 727.041 123.527 718.778 120.401C712.817 118.146 710.754 117.856 703.177 118.208C695.283 118.575 693.634 119.025 686.007 122.892C681.367 125.245 675.846 128.641 673.74 130.438C666.724 136.423 661.021 138.372 647.409 139.435C631.357 140.689 622.002 144.427 607.303 155.458C597.189 163.049 587.688 172.905 577.047 186.842C566.375 200.822 559.097 212.638 555.835 221.284C549.829 237.205 546.817 241.188 535.111 248.691C525.416 254.906 521.824 258.481 518.405 265.324C515.834 270.468 515.409 272.443 515.409 279.233C515.409 285.022 514.738 289.147 512.909 294.595C511.534 298.691 510.407 302.82 510.405 303.771C510.403 304.722 509.496 306.986 508.389 308.801L506.376 312.103L509.642 315.34C511.439 317.12 514.13 320.202 515.623 322.189C517.939 325.273 519.111 325.908 523.623 326.525C526.53 326.923 529.922 327.631 531.159 328.1C533.278 328.901 533.91 328.289 533.541 325.792C533.247 323.793 537.604 305.529 539.71 299.933C546.607 281.611 555.299 268.478 566.256 259.827C578.925 249.824 591.929 236.546 593.764 231.739C595.932 226.063 600.993 220.072 605.052 218.376C609.698 216.435 616.159 216.704 621.341 219.054C625.163 220.788 625.967 220.87 627.188 219.649C628.293 218.544 628.356 217.769 627.471 216.117C626.848 214.952 625.904 214 625.374 214C623.272 214 624.448 209.303 626.82 208.223C637.791 203.224 648.616 208.672 650.13 219.953C650.81 225.028 653.718 226.172 658.636 223.299C662.905 220.806 663.127 218.972 659.905 212.81C654.175 201.852 647.889 198 635.739 198C627.416 198 622.409 196.882 622.409 195.025C622.409 194.413 625.543 194 630.186 194C635.607 194 638.637 193.528 640.186 192.443C643.468 190.145 642.903 189 638.486 189C635.772 189 633.657 188.238 631.625 186.528C630.009 185.169 627.47 183.594 625.983 183.028C621.719 181.407 611.914 181.814 606.67 183.831C600.997 186.012 590.496 193.24 582.857 200.221C579.823 202.995 577.12 205.044 576.851 204.775C576.337 204.262 587.864 193.785 595.231 188.071C601.958 182.852 609.782 180.051 617.709 180.024C624.702 179.999 627.09 180.808 634.124 185.582C636.376 187.11 638.801 187.967 640.146 187.71C643.264 187.114 644.878 189.255 643.397 192.022C642.047 194.545 642.103 194.634 645.571 195.504C648.025 196.12 648.613 195.572 653.267 188.336C660.587 176.952 672.363 166.097 683.538 160.435C691.008 156.649 691.676 157.601 684.409 161.676C670.792 169.312 662.192 177.568 654.267 190.614L650.22 197.274L653.065 199.601C654.629 200.881 656.134 201.94 656.409 201.955C656.684 201.97 658.698 199.174 660.885 195.741C665.881 187.901 678.668 175.154 688.615 168.099C693.312 164.767 696.035 162.189 695.72 161.369C694.172 157.334 677.038 151.157 665.069 150.318C650.816 149.32 638.404 153.783 622.168 165.742C614.418 171.45 614.807 169.327 622.659 163.066C630.727 156.632 644.546 149.529 652.027 147.972C666.731 144.912 686.779 150.374 695.846 159.911C699.426 163.676 701.165 163.82 702.018 160.423C702.865 157.045 701.161 154.193 696.062 150.457C690.994 146.745 690.795 144.33 695.307 141.29C703.252 135.936 714.261 140.023 719.539 150.285C721.644 154.379 723.409 154.406 723.409 150.345C723.409 146.593 720.814 142.876 715.836 139.5C713.404 137.85 711.412 136.214 711.411 135.864C711.407 134.572 718.808 131.773 724.144 131.049C739.083 129.022 751.934 137.336 751.893 149C751.883 151.838 750.852 155.634 749.101 159.277C747.574 162.455 746.595 165.492 746.926 166.027C747.79 167.426 753.142 167.227 754.37 165.75C754.942 165.063 756.225 163.43 757.221 162.123C759.882 158.632 762.491 160.023 765.903 166.75C767.507 169.913 770.237 174.3 771.971 176.5C773.704 178.7 776.136 182.491 777.375 184.925C779.727 189.543 779.713 188.783 777.748 205C777.155 209.895 775.298 212.624 771.409 214.318C768.92 215.403 768.924 215.409 772.278 215.776C778.222 216.426 783.409 212.695 783.409 207.768C783.409 207.142 784.921 203.676 786.769 200.065C791.356 191.102 791.772 188.761 789.912 182.363C788.032 175.894 782.65 169.48 776.909 166.866C774.709 165.864 773.719 165.034 774.709 165.022C779.59 164.962 789.235 173.932 791.047 180.215C791.966 183.402 792.135 183.49 796.7 183.16C802.64 182.731 809.236 185.754 813.41 190.818C818.108 196.517 817.309 199.913 810.909 201.44C806.856 202.407 804.409 204.796 804.409 207.786C804.409 210.086 804.674 210.219 808.136 209.657C812.336 208.975 815.812 206.686 818.847 202.603C820.658 200.166 820.875 198.626 820.628 189.956C820.425 182.821 820.772 179.067 821.878 176.419C824.097 171.11 823.78 167.977 820.502 162.808C815.69 155.22 806.439 149.802 794.547 147.607L788.11 146.419L786.928 141.763C782.799 125.503 763.243 114.329 745.409 118.039ZM608.738 121.391C606.994 122.186 605.084 123.738 604.495 124.84C603.573 126.561 603.979 127.284 607.381 129.978C611.787 133.467 613.217 137.745 611.493 142.278C610.31 145.39 605.866 147.624 603.977 146.057C603.127 145.351 597.113 150.435 582.849 163.914C555.674 189.595 538.496 209.206 524.523 230.5C512.696 248.523 494.285 287.628 495.785 291.538C496.094 292.342 496.887 293 497.549 293C498.21 293 499.553 293.726 500.533 294.612C502.197 296.118 502.355 296.036 502.925 293.362C504.956 283.831 512.342 263.707 517.816 252.79C539.35 209.838 578.369 168.075 620.019 143.4C625.458 140.177 631.756 135.669 634.013 133.382C636.336 131.029 639.536 128.911 641.383 128.506C644.622 127.794 644.585 127.76 636.866 124.259C630.354 121.306 627.683 120.666 620.496 120.337C614.412 120.059 610.984 120.366 608.738 121.391ZM578.355 134.857C570.513 139.897 564.828 148.324 561.394 160C557.113 174.554 556.337 175.115 537.915 176.98C514.846 179.315 507.705 184.448 496.534 206.728C490.446 218.871 491.033 223.684 498.909 226.215C502.685 227.428 502.927 227.744 503.222 231.867C503.485 235.53 502.518 238.353 497.227 249.367C490.976 262.38 490.918 262.579 490.914 271.194C490.909 279.766 490.86 279.939 487.409 283.533C485.484 285.538 481.659 288.322 478.909 289.72C473.318 292.563 472.446 293.507 472.424 296.75C472.402 299.965 477.278 299.751 483.479 296.265C487.895 293.783 488.443 293.069 489.419 288.519C492.407 274.586 508.268 241.102 521.165 221.5C539.097 194.247 563.585 166.332 587.279 146.135C591.882 142.211 596.045 139 596.529 139C598.795 139 597.014 136.146 593.523 134.184C588.212 131.2 583.737 131.398 578.355 134.857ZM720.644 134.06C714.282 135.314 713.976 135.903 718.122 138.908C720.205 140.417 722.803 143.313 723.895 145.342C725.282 147.919 726.338 148.838 727.395 148.387C730.858 146.909 740.201 145.03 744.159 145.016C749.649 144.995 749.701 143.262 744.35 138.682C738.312 133.513 730.824 132.053 720.644 134.06ZM593.909 143.117C583.168 151.801 566.09 168.564 554.9 181.405C533.279 206.216 520.34 225.065 506.781 251.5C498.174 268.281 488.613 291.537 489.824 292.748C490.945 293.869 494.409 291.667 494.409 289.834C494.409 288.716 495.047 286.384 495.827 284.651C496.606 282.918 498.215 278.575 499.401 275C505.98 255.169 523.955 225.273 542.691 203C553.046 190.69 574.957 168.544 593.24 151.911C602.527 143.461 602.562 143.411 600.74 141.248L598.909 139.075L593.909 143.117ZM695.444 143.12L691.978 145.233L694.621 147.366C696.075 148.54 698.44 150.322 699.877 151.327C701.314 152.332 702.753 154.47 703.074 156.077C703.396 157.685 703.783 159 703.934 159C704.084 159 706.548 157.425 709.409 155.5C712.27 153.575 715.24 152 716.009 152C718.099 152 717.717 150.52 714.706 146.941C709.653 140.936 701.635 139.346 695.444 143.12ZM734.555 148.226C728.013 149.9 725.977 150.854 725.169 152.627C723.778 155.68 721.496 156.388 719.339 154.437C717.684 152.939 717.073 153.11 710.733 156.836C706.98 159.042 703.126 161.781 702.169 162.923C701.212 164.065 699.568 165 698.517 165C695.699 165 679.625 177.805 672.305 185.881C668.808 189.739 664.305 195.612 662.297 198.932L658.647 204.969L661.728 210.843L664.809 216.718L668.077 211.291C674.658 200.362 687.172 186.608 699.909 176.304C711.998 166.524 736.385 152.877 746.419 150.277C748.366 149.773 749.909 148.738 749.909 147.936C749.909 145.709 743.951 145.821 734.555 148.226ZM734.909 157.871C712.904 168.543 698.762 178.527 684.745 193.283C667.951 210.963 659.224 230.401 661.006 246.155C661.639 251.745 661.877 252.169 665.165 253.543C667.084 254.344 668.756 255 668.882 255C669.007 255 668.727 252.638 668.258 249.75C667.789 246.862 667.61 243.375 667.861 242C668.111 240.625 668.576 237.25 668.895 234.5C671.621 210.991 690.841 185.297 715.585 172.087C723.486 167.869 737.794 163 742.29 163C744.635 163 745.423 162.24 747.358 158.109C748.618 155.419 749.482 152.737 749.279 152.149C749.069 151.543 742.848 154.02 734.909 157.871ZM637.909 158C637.538 158.6 638.816 159.002 641.1 159.006C649.927 159.019 657.409 163.297 657.409 168.332C657.409 173.149 655.034 173.584 647.559 170.139C639.632 166.485 634.419 166.145 630.384 169.018C627.368 171.165 622.817 177.741 623.721 178.646C624.018 178.943 624.961 177.834 625.815 176.181C629.986 168.116 636.653 167.004 647.325 172.595C654.953 176.591 657.579 176.313 659.482 171.307C662.256 164.012 654.06 157.021 642.718 157.006C640.413 157.003 638.249 157.45 637.909 158ZM757.582 164.52C755.481 169.132 747.598 170.536 744.96 166.769L743.397 164.538L736.66 166.305C719.968 170.683 704.945 179.53 693.039 191.992C681.544 204.023 674.318 217.001 671.314 231.008C669.681 238.623 670.516 255.536 672.63 257.65C674.164 259.184 674.277 258.778 674.235 251.9C674.138 236.21 675.827 228.141 681.644 216.5C693.29 193.194 711.615 177.859 731.353 174.901C749.933 172.117 769.169 179.712 775.238 192.228C777.271 196.42 777.31 196.444 777.358 193.5C777.414 190.086 772.563 179.193 770.067 177.128C769.155 176.373 768.409 175.313 768.409 174.772C768.409 174.231 767.396 172.543 766.159 171.02C764.922 169.498 763.142 166.845 762.206 165.126C760.143 161.341 759.093 161.204 757.582 164.52ZM579.217 176.352C561.503 192.569 543.986 213.573 531.972 233C523.958 245.961 511.837 269.724 517.18 262.001C521.048 256.409 525.52 252.417 534.972 246.121L544.909 239.5L551.688 226C563.625 202.226 574.757 184.863 586.533 171.651C589.303 168.543 591.334 166 591.047 166C590.759 166 585.436 170.658 579.217 176.352ZM418.909 189.326C412.591 191.424 410.655 193.035 405.48 200.5C402.812 204.35 399.775 208.27 398.732 209.212C396.468 211.256 390.511 213.717 388.409 213.476C387.584 213.382 386.145 213.236 385.212 213.152C384.279 213.069 380.454 210.681 376.712 207.847C364.381 198.507 360.519 198.136 350.721 205.349C347.521 207.705 343.346 210.175 341.443 210.838C338.384 211.905 337.43 211.77 333.193 209.673C329.327 207.76 328.194 207.554 327.323 208.603C325.518 210.779 326.729 213.404 330.412 215.301C334.711 217.515 340.15 217.017 350.268 213.482C354.175 212.117 359.067 211.001 361.14 211.002C366.472 211.004 371.613 213.868 373.5 217.889C376.347 223.954 381.568 225.128 385.364 220.555C386.073 219.7 387.119 219 387.686 219C389.224 219 385.319 222.995 382.211 224.602C380.655 225.407 376.552 226 372.543 226C365.649 226 365.545 226.04 362.511 229.871C360.825 232 358.093 234.303 356.44 234.987C354.787 235.672 353.68 236.63 353.981 237.116C354.892 238.59 358.176 238.113 361.635 236.004C363.762 234.707 366.678 234.006 369.956 234.004C374.259 234.001 376.013 234.663 381.854 238.5C389.457 243.494 394.897 244.376 399.436 241.354C403.727 238.497 404.409 236.9 404.409 229.71C404.409 218.079 408.826 212.559 419.09 211.359C423.064 210.894 424.391 211.177 426.659 212.97C430.595 216.083 430.327 219.768 425.909 223.293C422.194 226.257 421.433 228.688 423.921 229.643C424.752 229.962 428.603 229.048 432.478 227.612C441.294 224.344 443.837 224.337 447.073 227.573C452.337 232.837 447.565 241.75 438.198 244.151C432.708 245.558 428.409 248.908 428.409 251.779C428.409 253.502 428.819 253.569 433.484 252.614C439.836 251.313 443.223 252.916 445.224 258.173C447.335 263.72 444.889 270.94 438.454 278.161C435.679 281.274 433.409 284.135 433.409 284.519C433.409 284.903 434.534 284.934 435.909 284.589C438.813 283.861 439.012 284.254 436.838 286.429C434.355 288.911 432.582 288.319 428.248 283.556C423.693 278.551 421.254 277.751 416.909 279.838C411.469 282.451 410.935 285 415.827 285C420.985 285 422.293 285.854 423.393 289.94C424.668 294.677 427.475 296.005 435.938 295.878C443.662 295.762 446.168 297.107 450.727 303.818C458.245 314.881 463.647 318.116 471.99 316.551C474.646 316.052 476.003 315.059 477.24 312.704C478.158 310.958 480.591 307.788 482.647 305.659C486.148 302.034 486.657 301.828 490.647 302.422C499.872 303.796 500.884 303.676 501.239 301.168C501.723 297.756 498.746 295 494.579 295C492.538 295 487.925 296.548 483.605 298.683C476.637 302.126 475.98 302.27 473.53 300.901C471.581 299.813 470.831 298.507 470.604 295.809C470.237 291.446 472.478 288.958 478.586 286.941C480.856 286.193 484.219 284.159 486.061 282.422C488.889 279.754 489.409 278.569 489.409 274.787C489.409 270.711 488.913 269.799 483.854 264.576C475.457 255.906 474.653 252.112 479.014 241.75C482.16 234.275 481.888 228.834 478.081 223.08C474.733 218.021 466.104 213.658 459.64 213.755C453.304 213.851 448.887 209.587 447.92 202.44C446.867 194.656 445.965 192.645 442.663 190.716C438.557 188.318 424.435 187.492 418.909 189.326ZM630.092 210.184C628.005 210.945 627.462 211.636 627.995 212.856C628.39 213.76 628.915 215.923 629.16 217.662C629.739 221.755 626.972 223.569 622.724 221.882C613.599 218.258 606.197 219.2 601.468 224.586C599.806 226.479 597.718 229.437 596.827 231.159C595.282 234.146 595.293 234.255 597.058 233.506C608.545 228.628 612.051 227.819 619.909 228.23C632.07 228.866 638.249 233.059 631.659 236.203C627.521 238.177 627.484 242.044 631.571 245.482L634.839 248.233L636.068 239.718C637.448 230.159 638.951 225.979 643.261 219.715C646.078 215.621 646.143 215.301 644.567 213.255C641.572 209.367 635.733 208.129 630.092 210.184ZM414.048 215.409C410.87 217.015 409.587 218.432 408.521 221.515L407.133 225.529L412.2 232.224C414.987 235.906 418.728 242.072 420.514 245.926L423.76 252.932L425.458 249.14C427.418 244.762 432.226 242 437.887 242C444.875 242 450.048 233.699 445.58 229.655C443.141 227.447 441.636 227.555 433.813 230.5C426.453 233.27 423.404 233.595 421.609 231.8C419.475 229.666 420.328 226.096 423.922 222.118C427.701 217.934 427.745 215.58 424.067 214.361C420.201 213.081 418.254 213.285 414.048 215.409ZM643.639 222.77C641.974 225.922 639.905 230.612 639.041 233.193C637.012 239.26 636.083 248.68 637.432 249.514C637.998 249.864 640.868 250.398 643.81 250.702L649.16 251.254L648.711 244.377C648.414 239.827 648.784 235.817 649.804 232.527C651.165 228.142 651.174 227.29 649.878 225.313C649.07 224.079 648.409 221.956 648.409 220.594C648.409 216.16 646.726 216.928 643.639 222.77ZM221.912 224.701C214.527 229.133 213.284 229.543 205.656 230.059C196.694 230.666 192.187 232.831 191.594 236.815C191.063 240.383 195.32 240.602 201.538 237.328C206.747 234.585 207.362 234.501 221.909 234.517C236.59 234.533 237.047 234.6 243.409 237.625C246.984 239.326 251 241.906 252.333 243.358C253.667 244.811 255.354 246 256.083 246C256.812 246 257.409 246.45 257.409 247C257.409 247.55 256.12 248 254.544 248C251.069 248 246.409 251.445 246.409 254.014C246.409 257.398 248.47 257.244 252.014 253.594C255.941 249.551 260.414 248.871 266.537 251.385C268.392 252.146 271.308 252.554 273.017 252.292C279.777 251.254 288.409 258.817 288.409 265.778C288.409 268.699 288.577 268.817 292.659 268.758C302.668 268.614 315.409 280.376 315.409 289.76C315.409 294.223 313.825 295 304.73 295C289.555 295 277.371 301.026 274.411 309.994C273.579 312.514 270.943 316.248 267.724 319.468C262.027 325.164 260.98 328.728 263.877 332.559C265.324 334.471 265.346 334.47 265.377 332.473C265.433 328.927 268.332 326.048 273.04 324.863C276.583 323.97 278.071 322.911 279.942 319.949C282.63 315.69 285.994 313 288.632 313C289.609 313 290.409 312.543 290.409 311.985C290.409 310.116 296.867 307.008 300.758 307.004C305.842 306.999 311.334 309.7 313.313 313.181C314.698 315.616 315.518 315.988 319.504 315.994C323.901 316 327.413 318.037 327.407 320.579C327.405 321.089 330.797 321.352 335.006 321.168C343.692 320.788 350.14 322.481 357.768 327.145C360.44 328.779 362.854 329.888 363.132 329.61C363.41 329.332 362.671 327.106 361.488 324.664C359.195 319.926 354.406 316.078 348.046 313.862L344.183 312.517L344.88 301.768C345.708 288.983 344.374 283.655 338.674 276.997C333.303 270.722 325.431 267.658 309.14 265.503C302.617 264.64 300.002 261.984 295.912 252.068C292.005 242.595 289.03 238.963 282.649 235.874C278.768 233.995 277.253 233.832 269.388 234.448L260.508 235.142L257.007 230.321C251.467 222.691 247.715 220.699 238.079 220.267L229.909 219.902L221.912 224.701ZM656.172 227.3C651.769 228.533 650.981 230.896 650.937 242.995L650.909 250.49L654.982 251.039L659.054 251.587L658.669 244.044C658.434 239.456 658.838 234.442 659.7 231.25C660.479 228.362 660.844 226.057 660.513 226.126C660.181 226.196 658.227 226.724 656.172 227.3ZM407.752 234.75C406.871 238.512 406.924 240.053 408.004 242.16C410.078 246.207 412.527 261.926 411.874 267C410.436 278.169 404.55 296 402.302 296C401.796 296 402.108 294.313 402.996 292.25C409.887 276.234 411.403 266.083 408.987 252.122C406.937 240.269 406.589 239.615 403.615 242.029C401.372 243.851 401.354 244.008 402.816 249.196C408.141 268.102 403.954 283.33 389.046 299.282L386.446 302.063L388.992 303.032C393.031 304.567 394.252 304.223 397.976 300.5C401.919 296.557 403.079 296.4 412.909 298.483C417.229 299.398 421.824 299.718 424.909 299.319C429.8 298.686 429.844 298.65 426.909 297.701C422.422 296.251 421.409 295.092 421.409 291.413C421.409 287.342 419.298 285.965 414.126 286.662C410.697 287.124 410.409 286.97 410.409 284.67C410.409 280.009 419.222 274.854 424.387 276.493C426.79 277.256 426.761 277.717 424.987 266.786C423.482 257.516 418.039 243.773 412.377 234.95C410.63 232.228 409.125 230 409.032 230C408.939 230 408.363 232.138 407.752 234.75ZM614.409 230.637C602.854 232.815 591.331 239.484 584.274 248.075C582.275 250.509 578.9 253.741 576.774 255.258C563.392 264.806 559.643 268.03 555.632 273.443C546.925 285.192 539.081 304.902 536.373 321.836C535.201 329.16 535.204 329.176 537.929 332.021C541.076 335.306 541.453 339.189 538.898 342.013C537.169 343.923 537.234 343.948 542.396 343.391C545.29 343.079 549.126 343.099 550.921 343.436C554.917 344.186 558.971 348.059 559.729 351.852C560.044 353.423 561.76 355.793 563.601 357.198L566.909 359.72L566.917 340.61C566.929 309.413 572.484 291.803 586.863 277.379C593.621 270.601 599.979 266.944 609.125 264.574C621.634 261.332 627.691 262.912 636.651 271.755C642.272 277.302 642.539 277.435 649.345 278.058C655.231 278.598 656.849 279.179 659.888 281.848C664.072 285.521 668.919 286.027 672.457 283.162C675.591 280.625 674.209 279.104 668.929 279.276C665.654 279.383 663.884 278.864 662.197 277.306C659.382 274.705 653.46 273.013 647.143 273.006C642.68 273 642.27 272.777 640.703 269.491C635.907 259.433 647.849 254.39 658.732 261.878C664.107 265.576 668.33 266.648 671.287 265.065C674.015 263.605 673.973 261.879 671.145 259.222C666.789 255.13 661.829 253.852 650.569 253.92C638.457 253.994 633.703 252.377 628.453 246.397C624.644 242.059 624.617 239.638 628.336 235.919C631.045 233.21 631.127 232.92 629.441 232.017C627.244 230.841 617.884 229.982 614.409 230.637ZM225.263 238.607C231.689 244.108 233.827 248.983 233.953 258.425L234.058 266.35L237.611 267.58L241.163 268.81L241.786 264.266C243.319 253.084 241.54 242.217 237.599 238.689C236.099 237.345 226.529 235 222.545 235C221.719 235 222.937 236.616 225.263 238.607ZM240.755 240.174C241.064 240.903 241.881 243.413 242.571 245.75C243.664 249.459 245.409 251.561 245.409 249.169C245.409 248.712 246.528 247.739 247.897 247.007C249.885 245.942 250.15 245.392 249.214 244.265C247.438 242.125 240.07 238.562 240.755 240.174ZM917.909 240.007C882.189 242.804 845.315 258.962 820.277 282.788C809.717 292.838 798.234 307.779 791.714 319.957C775.34 350.535 766.742 364.407 752.301 383.547C748.235 388.936 742.464 396.74 739.477 400.891C724.076 422.283 702.06 437.39 680.919 441.072C661.88 444.387 638.834 437.47 620.417 422.912C617.525 420.626 614.937 417.91 614.667 416.877C614.397 415.845 613.82 415 613.386 415C612.952 415 610.98 412.75 609.004 410C605.94 405.735 604.927 405 602.111 405C597.736 405 596.277 406.523 597.521 409.794C598.224 411.645 598.137 412.568 597.198 413.194C595.311 414.453 590.325 413.269 587.893 410.985C585.318 408.566 585.027 408.557 580.262 410.75C575.587 412.902 575.41 413.798 579.659 413.807C589.725 413.829 604.025 417.785 616.294 423.942C626.199 428.913 650.421 443.217 659.409 449.403C663.708 452.361 664.334 452.495 673.409 452.384C696.432 452.103 720.751 440.922 744.523 419.689C759.708 406.126 771.962 391.735 792.37 363.5C810.531 338.375 818.155 329.157 834.845 312.147C851.451 295.223 860.941 287.142 875.748 277.317C907.592 256.188 939.299 250.424 973.437 259.56C983.773 262.326 998.004 268.732 1006.16 274.288C1009.05 276.255 1011.41 277.486 1011.41 277.022C1011.41 276.559 1009.58 273.865 1007.34 271.037C995.671 256.269 966.677 242.458 943.34 240.549C928.721 239.353 926.794 239.312 917.909 240.007ZM260.409 251.535C260.409 251.83 261.125 253.163 262.001 254.499C262.876 255.835 263.837 259.628 264.136 262.927C264.602 268.061 264.296 269.71 262.018 274.366C260.555 277.358 258.706 280.056 257.91 280.361C257.114 280.667 255.129 279.794 253.499 278.422C249.631 275.167 237.338 269.584 230.555 268C222.48 266.115 212.296 267.181 203.133 270.87C198.779 272.622 193.533 274 191.213 274C187.471 274 186.516 273.43 181.386 268.139C174.904 261.452 171.826 260.404 163.383 262.005C156.431 263.323 149.971 266.47 147.335 269.822C145.681 271.924 145.379 273.312 145.866 276.563C146.401 280.129 146.125 281.011 143.727 283.41C141.486 285.65 140.409 286.043 137.941 285.517C126.308 283.038 122.681 284.164 112.737 293.338C106.783 298.831 102.928 301.237 98.3019 302.343C96.8679 302.686 93.8689 304.947 91.6379 307.367C88.2519 311.04 87.4649 312.701 86.8759 317.415C86.2709 322.256 86.5119 323.725 88.5599 327.704C91.2229 332.879 95.3179 335.151 97.9869 332.935C99.1969 331.931 99.3639 330.319 98.8259 324.859C98.2839 319.349 98.4769 317.545 99.8339 315.474C102.397 311.563 105.901 310.639 111.252 312.462C117.246 314.505 117.195 314.517 119.091 310.54C120.778 307.004 125.143 304.577 127.909 305.638C128.791 305.977 131.293 304.199 134.344 301.067C139.517 295.755 148.063 291.009 152.409 291.034C154.174 291.043 153.213 291.745 149.139 293.42C142.26 296.249 137.465 299.75 133.688 304.7C131.369 307.74 130.888 309.398 130.784 314.723C130.685 319.84 130.218 321.574 128.43 323.478C125.642 326.445 126.515 328 130.968 328C135.289 328 138.409 325.051 138.409 320.968C138.409 319.3 139.05 316.402 139.833 314.528C141.519 310.493 149.09 302 151.001 302C151.737 302 152.79 301.156 153.342 300.124C154.906 297.202 163.735 291.992 166.997 292.067C169.659 292.128 169.558 292.244 165.829 293.411C160.201 295.173 155.881 298.59 152.378 304.049C148.02 310.84 148.402 313.093 155.103 320.118C159.041 324.247 161.432 325.997 162.853 325.794C165.791 325.374 166.085 320.759 163.414 317.007C162.244 315.364 161.041 312.51 160.742 310.665C160.292 307.89 160.75 306.681 163.396 303.667C167.778 298.677 172.685 297.299 180.161 298.96C187.119 300.505 192.936 303.326 193.797 305.57C194.731 308.003 197.205 305.642 199.617 300.015C203.694 290.504 210.306 284.746 221.492 280.965C229.873 278.132 243.412 278.502 250.675 281.762C257.249 284.713 265.432 293.201 269.129 300.903C271.657 306.171 272.301 306.915 272.846 305.199C273.881 301.936 279.709 297.414 286.077 294.932C291.389 292.861 295.46 292.365 309.659 292.059C313.115 291.985 313.347 289.074 310.3 284C304.558 274.436 296.307 270.127 288.159 272.437L285.409 273.217V267.008C285.409 261.281 285.145 260.536 282.009 257.4C278.683 254.074 275.295 253.151 272.629 254.843C271.604 255.493 271.653 256.238 272.873 258.578C275.218 263.075 274.814 269.634 271.882 274.636C269.298 279.046 262.386 284.001 258.821 283.999C257.673 283.999 258.59 283.166 261.119 281.914C266.683 279.161 272.13 273.003 272.972 268.517C274.059 262.724 271.196 256.651 265.921 253.56C261.497 250.967 260.409 250.568 260.409 251.535ZM256.035 252.795C255.765 253.233 255.277 256.045 254.952 259.045C254.626 262.045 253.603 266.648 252.678 269.274L250.996 274.049L254.037 277.089L257.078 280.13L259.657 274.315C261.589 269.96 262.183 267.089 262.022 262.879C261.754 255.822 258.035 249.559 256.035 252.795ZM436.682 254.81C435.727 255.417 435.706 256.943 436.587 261.68C437.4 266.051 437.422 269.275 436.666 273.099L435.612 278.426L438.483 274.963C444.88 267.245 446.123 260.623 441.954 256.455C439.322 253.822 438.595 253.595 436.682 254.81ZM251.817 257.5C250.084 260.145 247.537 260.728 245.708 258.899C244.47 257.661 243.961 258.876 242.93 265.54C242.329 269.417 242.448 269.648 245.883 271.286L249.461 272.993L250.5 270.261C251.712 267.072 254.331 255 253.81 255C253.615 255 252.718 256.125 251.817 257.5ZM428.909 256.878C427.259 257.231 425.982 257.859 426.071 258.275C427.271 263.861 428.5 273.394 428.259 275.237C428.089 276.537 428.896 278.804 430.054 280.276L432.159 282.952L433.784 277.16C436.235 268.425 435.791 255.831 433.042 256.118C432.419 256.183 430.559 256.525 428.909 256.878ZM399.843 264.25C395.972 272.497 384.401 284.134 374.907 289.329C366.911 293.705 354.914 298 350.688 298C347.926 298 347.784 298.24 346.843 304.481C346.051 309.74 346.127 311.062 347.248 311.492C350.13 312.597 380.912 299.666 390.495 293.324C394.442 290.713 402.685 277 400.309 277C399.507 277 399.636 276.406 400.69 275.242C402.133 273.648 404.438 258 403.231 258C402.981 258 401.456 260.813 399.843 264.25ZM644.159 262.023C642.038 263.328 641.865 267.304 643.858 268.958C644.655 269.619 647.242 270.36 649.608 270.604C651.973 270.849 656.56 272.388 659.799 274.024C663.136 275.71 667.276 277 669.349 277C675.525 277 677.521 281.268 672.936 284.667L670.462 286.5L673.482 295.5C688.175 339.291 720.284 370 751.38 370H757.931L762.12 363.254C766.759 355.782 766.747 355.748 759.066 354.471C753.854 353.604 743.356 350.027 735.822 346.55C720.754 339.599 704.345 326.154 694.516 312.706C685.899 300.917 678.218 283.142 675.953 269.75C675.29 265.833 674.563 265.246 672.69 267.119C670.41 269.399 663.349 268.296 658.657 264.926C653.873 261.491 647.197 260.154 644.159 262.023ZM610.659 266.706C609.422 266.944 608.409 267.53 608.409 268.009C608.409 268.487 605.894 272.384 602.819 276.669C595.293 287.159 589.177 300.12 585.202 314C581.959 325.325 581.909 325.812 581.909 346C581.909 364.993 582.07 366.849 584.103 371.25C585.309 373.862 586.106 376 585.873 376C584.748 376 581.471 367.788 580.5 362.535C578.904 353.9 579.152 332.576 580.96 323.047C584.173 306.105 592.365 287.44 602.139 274.79C606.57 269.056 607.111 267.957 605.213 268.544C592.062 272.613 579.211 287.613 573.98 305.002C569.653 319.381 567.682 356.624 570.71 366.749C571.942 370.865 577.468 376.87 580.108 376.959C580.768 376.982 582.5 378.563 583.957 380.474C586.531 383.849 586.689 383.906 589.459 382.474C591.027 381.663 593.267 381 594.436 381C596.912 381 602.409 386.118 602.409 388.423C602.409 389.557 603.387 390 605.889 390C612.496 390 617.264 392.773 620.493 398.496C622.115 401.369 624.334 404.527 625.425 405.515C626.516 406.502 627.409 408.08 627.409 409.02C627.409 411.932 623.488 416 620.681 416C618.159 416 618.141 416.047 619.916 418.007C622.727 421.113 636.278 429.499 643.185 432.406C657.261 438.33 671.981 439.562 685.963 435.986C690.293 434.879 694.215 433.594 694.679 433.13C695.142 432.667 692.991 431.991 689.899 431.628C682.191 430.722 672.186 427.073 660.092 420.757C645.119 412.937 639.019 408.608 628.054 398.018C612.643 383.135 604.916 371.715 598.955 355.016C594.837 343.482 593.409 334.95 593.409 321.892C593.409 299.489 598.144 284.916 610.243 270.087C612.077 267.839 613.427 266.061 613.243 266.136C613.059 266.211 611.896 266.467 610.659 266.706ZM610.121 273.25C595.19 292.163 591.378 322.891 600.537 350.5C609.42 377.275 627.871 398.134 659.409 417.053C676.832 427.506 682.544 429.774 692.409 430.156C700.569 430.472 701.127 430.351 706.354 427.132C712.271 423.488 722.263 415.857 722.353 414.914C722.384 414.592 720.512 414.254 718.193 414.163C715.874 414.072 713.286 413.78 712.443 413.514C711.599 413.248 706.859 412.611 701.909 412.1C691.596 411.034 681.297 407.772 666.69 400.945C653.43 394.747 643.822 388.288 634.049 379C615.059 360.952 605.407 338.882 605.281 313.216C605.206 297.925 609.093 284.361 617.433 270.807C620.385 266.008 620.387 266 618.118 266C616.489 266 614.222 268.055 610.121 273.25ZM619.567 270.753C608.098 288.626 604.126 312.332 609.304 332C614.357 351.192 619.428 360.022 633.42 374C648.637 389.201 662.196 397.032 689.409 406.337C700.975 410.292 702.53 410.629 713.336 411.511C717.421 411.845 721.021 412.145 721.336 412.178C724.772 412.533 726.865 411.203 731.91 405.456C735.07 401.857 737.487 398.751 737.282 398.553C737.077 398.356 731.016 397.735 723.813 397.174C701.264 395.417 687.968 389.432 671.743 373.736C660.949 363.293 654.366 354.139 646.972 339.29C637.971 321.21 630.12 294.072 628.954 277C628.3 267.435 629.404 270.748 632.852 288.705C641.739 334.985 663.649 370.605 692.326 385.398C702.686 390.742 709.931 392.718 724.147 394.078C740 395.595 739.903 395.635 748.358 384.229L755.571 374.5L752.74 373.82C751.183 373.446 746.175 372.466 741.611 371.642C727.443 369.085 714.755 361.451 701.581 347.558C688.993 334.282 677.575 314.528 671.821 296.067C669.45 288.463 668.659 287 666.918 287C665.776 287 662.382 285.414 659.375 283.477C654.9 280.592 653.365 280.086 650.909 280.687C644.391 282.281 642.526 281.559 635.574 274.752C629.256 268.565 625.741 266 623.579 266C623.05 266 621.245 268.139 619.567 270.753ZM508.912 281.654C506.912 288.169 504.63 294.774 503.842 296.331C503.054 297.888 502.409 299.956 502.409 300.926C502.409 301.896 501.53 303.486 500.455 304.459C498.815 305.943 497.986 306.048 495.305 305.114C489.818 303.201 486.822 303.721 483.998 307.077C480.395 311.359 480.752 312.143 485.535 310.456C490.385 308.744 496.175 308.581 500.029 310.046C504.304 311.671 508.073 307.309 510.062 298.431C511.5 292.02 513.59 270.943 512.867 270.154C512.693 269.964 510.913 275.139 508.912 281.654ZM679.468 275.075C679.435 275.391 680.5 278.856 681.833 282.775C693.636 317.478 724.956 344.488 761.458 351.443L768.361 352.758L772.743 345.129C777.471 336.899 784.409 324.116 784.409 323.636C784.409 323.473 781.371 323.983 777.659 324.767C754.704 329.62 722.011 318.177 697.974 296.878C693.592 292.995 683.966 281.57 680.718 276.397C680.063 275.354 679.5 274.759 679.468 275.075ZM395.355 281.575C387.977 289.231 368.773 299.979 354.919 304.207C346.665 306.726 347.744 307.894 356.139 305.527C369.534 301.75 389.923 289.685 396.601 281.583C400.387 276.991 399.778 276.987 395.355 281.575ZM929.076 293.816C928.172 294.814 927.131 297.14 926.762 298.983C926.16 301.995 926.286 302.261 928 301.598C929.05 301.192 932.047 300.364 934.659 299.758C939.862 298.552 940.807 296.576 937.58 293.655C935.17 291.474 931.126 291.55 929.076 293.816ZM383.191 299.069C379.497 301.263 371.847 304.86 366.191 307.063C360.536 309.265 355.067 311.409 354.038 311.827C352.458 312.469 352.798 312.872 356.217 314.414L360.267 316.24L368.909 312.057C375.674 308.782 377.315 307.592 376.467 306.57C374.996 304.797 377.442 302.843 382.084 302.084C384.519 301.686 386.452 300.466 388.16 298.25C389.538 296.462 390.495 295.018 390.287 295.04C390.079 295.062 386.886 296.875 383.191 299.069ZM219.909 297.399C213.74 299.35 210.26 301.473 205.974 305.899C202.345 309.648 202.019 310.449 201.772 316.231L201.506 322.5L202.388 317.655C203.734 310.262 208.693 305.99 218.328 303.924C232.633 300.856 244.055 307.262 245.181 318.983C245.731 324.707 243.25 335.46 240.178 340.667C239.145 342.418 237.824 346.921 237.243 350.675C236.662 354.429 235.587 358.666 234.854 360.092C233.561 362.606 223.793 372.602 222.042 373.202C221.565 373.366 221.235 368.1 221.308 361.5C221.428 350.811 221.185 348.953 219.084 344.493C216.494 338.992 210.811 333.39 206.802 332.384C202.436 331.288 193.93 332.702 188.58 335.414C185.772 336.836 181.974 338 180.139 338C175.248 338 166.894 342.572 162.917 347.424C153.386 359.057 152.414 374.312 160.958 378.204C164.774 379.943 167.187 377.082 168.005 369.851C168.576 364.805 169.11 363.637 171.683 361.805C174.321 359.926 175.186 359.794 178.703 360.733C181.831 361.568 183.617 361.483 186.812 360.347C192.091 358.471 196.368 359.304 199.791 362.877C205.657 368.999 207.298 384.419 203.051 393.5C200.302 399.377 193.09 406.351 187.109 408.914C175.527 413.879 158.465 415.057 149.659 411.5L145.409 409.783V398.121C145.409 363.683 126.016 340.802 96.2199 340.084C89.0279 339.911 87.8309 339.616 86.4979 337.693C72.5999 317.631 44.3109 309.452 24.1129 319.657L19.3169 322.08L12.6209 318.79C6.99189 316.024 4.86289 315.512 -0.744108 315.574C-6.49011 315.638 -8.20411 316.123 -13.1161 319.074C-19.7971 323.089 -24.6771 328.433 -28.1591 335.549C-30.5051 340.345 -30.6231 344 -28.4311 344C-27.9111 344 -24.9221 341.229 -21.7881 337.842C-18.6551 334.455 -14.2911 330.865 -12.0911 329.864C-7.10011 327.593 1.51389 327.476 7.73089 329.594C12.7579 331.307 14.3069 333.405 9.53389 332.036C6.11389 331.055 -1.31511 332.289 -5.72911 334.571C-10.6931 337.138 -18.4451 345.494 -20.6621 350.666C-23.2531 356.711 -24.0161 362.443 -23.1501 369.371C-21.9811 378.729 -17.5601 383.213 -11.1001 381.592C-7.96011 380.804 -7.49411 378.962 -9.18711 374.047C-11.1511 368.346 -9.70411 363.184 -4.97811 359.035C-0.361109 354.981 2.58389 355.267 3.51789 359.861C3.89389 361.709 4.83089 363.85 5.5999 364.619C6.79689 365.816 7.49389 365.644 10.4529 363.422C13.4689 361.158 14.6209 360.888 19.4969 361.304C25.9879 361.858 29.2439 363.557 30.0729 366.823C30.4729 368.399 30.9899 368.819 31.6799 368.129C33.2649 366.544 30.5579 361.129 27.3539 359.472C22.4339 356.927 14.3999 356.606 10.2309 358.787L6.55289 360.711L5.97989 358.425C3.90689 350.166 -5.71111 351.986 -11.7671 361.784C-13.4321 364.479 -13.7401 366.315 -13.4071 371.551C-13.0921 376.498 -13.3101 378 -14.3451 378C-16.5921 378 -18.9051 370.946 -18.9381 363.988C-18.9761 355.953 -16.1291 349.673 -9.8061 343.844C-3.4141 337.952 2.48389 335.616 9.02489 336.385L14.3169 337.007L14.9619 333.568C15.3169 331.677 15.3289 329.68 14.9889 329.13C14.6489 328.58 11.8879 327.2 8.85189 326.065C1.52289 323.322 -8.49211 323.319 -14.5271 326.056L-18.9631 328.069L-17.1421 326.057C-16.1411 324.95 -13.0441 322.909 -10.2601 321.522C-1.79711 317.305 7.10989 318.327 16.2949 324.569C19.3289 326.63 20.0139 326.764 21.3559 325.555C24.2039 322.992 33.8009 319.851 40.4979 319.289C56.4689 317.95 74.9639 326.508 82.5569 338.75C84.5689 341.994 84.5859 342 92.8849 342C116.412 342 134.01 356.183 140.009 379.979C141.22 384.782 141.547 389.696 141.276 398.971L140.909 411.483L145.409 413.686C160.353 421.004 185.63 416.779 197.416 404.993C209.536 392.873 210.9 370.712 200.095 361.463C196.522 358.405 195.466 358.054 189.027 357.791L181.909 357.5L190.223 354.25C203.037 349.241 207.059 349.899 209.954 357.479C211.404 361.276 211.502 362.881 210.58 367.74C208.705 377.622 208.2 385.388 209.264 388C210.182 390.254 210.29 390.057 210.363 386C210.408 383.525 211.118 377.45 211.942 372.5C213.101 365.539 213.194 362.451 212.353 358.869C209.844 348.178 201.782 346.012 188.225 352.387C183.998 354.374 179.588 356 178.425 356C172.666 356 165.939 362.466 164.899 369C163.992 374.699 162.8 376.28 160.384 374.987C157.423 373.402 156.196 368.092 157.445 362.266C160.144 349.681 170.297 340.02 180.865 339.982C184.774 339.968 186.882 339.304 190.235 337.032C195.406 333.527 202.197 332.255 206.412 334.001C210.293 335.609 215.877 341.843 217.265 346.119C218.867 351.052 220.36 365.944 219.727 370.668C219.389 373.185 219.613 375.008 220.313 375.441C221.979 376.47 227.383 372.778 233.175 366.654C238.386 361.144 238.758 360.173 239.792 349.388C240.099 346.185 241.241 342.862 242.85 340.491C248.346 332.393 249.94 319.969 246.466 312.316C242.17 302.855 228.089 299.038 213.909 303.49C212.809 303.835 213.709 303.085 215.909 301.824C219.273 299.895 221.365 299.528 229.069 299.515C237.635 299.501 238.511 299.695 242.569 302.507C248.681 306.741 251.62 313.079 252.256 323.39C252.603 329.031 252.977 330.739 253.482 329C254.597 325.17 254.526 318.644 253.309 312.97C250.523 299.979 234.852 292.673 219.909 297.399ZM398.409 302.5C393.731 306.409 392.007 306.694 386.638 304.451C384.6 303.6 381.963 303.146 380.778 303.443C378.69 303.967 378.721 304.089 381.767 307.412C386.136 312.178 388.628 312.522 397.14 309.536C401.117 308.141 404.997 307 405.763 307C406.528 307 410.662 308.145 414.95 309.545C422.778 312.1 425.356 312.105 432.909 309.574C434.832 308.93 434.836 308.954 433.025 310.202C431.989 310.916 429.843 312.56 428.256 313.855C426.432 315.344 423.854 316.288 421.248 316.421C418.323 316.57 416.586 317.298 415.268 318.926C412.694 322.104 412.926 322.725 416.49 322.201C418.185 321.953 420.695 322.351 422.069 323.086C424.217 324.235 424.94 324.187 427.238 322.743C428.707 321.82 431.321 320.315 433.048 319.4C443.952 313.618 458.669 331.115 449.81 339.329C446.171 342.703 446.909 345.415 451.572 345.805C454.82 346.076 455.912 345.463 461.564 340.195C469.879 332.445 473.461 330.672 480.909 330.619C488.859 330.563 496.409 334.545 496.409 338.794C496.409 340.082 496.066 339.955 494.848 338.217C492.384 334.698 487.459 332.678 481.333 332.672C472.983 332.664 472.532 333.721 479.418 337.162C490.429 342.665 500.415 355.061 500.405 363.217C500.4 367.747 497.04 372.838 492.919 374.56C488.086 376.579 478.766 376.354 473.909 374.1C471.709 373.079 468.358 370.614 466.463 368.622C463.476 365.483 462.409 365.003 458.463 365.022C455.958 365.034 451.947 365.934 449.55 367.022C444.432 369.344 441.831 369.456 438.409 367.5C435.149 365.637 432.002 365.642 428.376 367.517C425.655 368.924 422.409 373.512 422.409 375.95C422.409 377.883 425.771 377.027 428.519 374.394C431.053 371.967 431.492 371.872 434.935 373.009C437.094 373.721 440.569 373.971 443.293 373.61C460.77 371.291 482.409 388.756 482.409 405.18C482.409 412.585 479.949 421.455 476.117 427.867C466.173 444.505 438.553 465.807 408.909 479.702C390.837 488.173 365.878 496.875 354.745 498.588C351.791 499.042 349.61 500.245 347.245 502.727L343.909 506.226L348.24 504.051C357.782 499.26 366.502 497.842 391.409 497.03C412.268 496.351 416.426 495.923 428.409 493.228C444.602 489.585 453.151 486.471 463.872 480.311C486.461 467.332 502.259 450.603 507.537 434.072C508.834 430.007 509.816 423.685 510.11 417.5L510.586 407.5L506.398 405.163L502.21 402.826L498.368 405.913C493.981 409.439 489.409 410.072 489.409 407.153C489.409 402.677 499.169 396.025 505.765 396.006C506.786 396.003 511.061 392.486 515.265 388.192C521.764 381.554 523.79 380.11 528.789 378.558C535.822 376.374 548.972 376.828 552.882 379.39C555.134 380.866 555.326 380.837 555.93 378.934C556.733 376.403 554.169 372.303 550.833 370.783C548.758 369.838 547.879 370.016 545.339 371.893C542.017 374.35 539.661 374.353 538.119 371.905C536.513 369.355 538.152 365.185 541.423 363.493C545.212 361.534 545.172 360.68 541.159 357.82C535.789 353.992 530.859 354.62 524.03 360C512.947 368.731 511.282 369.338 507.286 366.102C504.986 364.239 504.973 364.137 506.638 360.647C508.337 357.083 511.516 354.854 516.659 353.621C519.937 352.835 520.179 350.77 517.327 347.918C515.51 346.101 514.584 345.934 510.077 346.61C502.817 347.699 499.114 347.317 497.661 345.33C495.188 341.948 496.283 340.716 499.416 343.352C501.35 344.98 503.223 345.717 504.666 345.419C512.872 343.723 514.924 343.817 517.714 346.018C519.897 347.741 520.451 348.92 520.214 351.343C519.957 353.969 519.267 354.693 515.803 355.978C513.545 356.815 510.958 358.118 510.053 358.872C507.757 360.789 507.946 364.718 510.371 365.488C512.8 366.259 515.008 365.108 520.934 359.979C527.53 354.27 531.015 352.684 535.61 353.3C540.403 353.943 544.135 356.304 545.665 359.662C546.662 361.852 546.548 362.422 544.869 363.629C540.738 366.599 539.409 368.033 539.409 369.522C539.409 372.016 542.09 372.319 544.332 370.077C547.41 366.999 551.942 367.379 555.582 371.019C558.351 373.788 558.572 374.51 558.255 379.736C557.929 385.104 558.059 385.487 560.507 386.356C564.682 387.839 569.989 386.265 574.13 382.317C576.484 380.072 577.438 378.547 576.659 378.273C575.972 378.031 575.409 377.373 575.409 376.811C575.409 376.248 574.323 374.934 572.996 373.89C571.499 372.713 570.325 370.46 569.902 367.958C569.328 364.563 568.357 363.286 563.778 359.903C560.038 357.14 558.156 354.984 557.761 353.011C557.445 351.432 556.076 349.096 554.718 347.82C552.596 345.825 551.103 345.474 544.079 345.316C539.586 345.215 535.306 345.102 534.57 345.066C533.699 345.023 534.135 343.925 535.82 341.923C537.244 340.231 538.409 338.401 538.409 337.858C538.409 336.168 536.391 333 535.315 333C534.752 333 534.569 333.45 534.909 334C535.249 334.55 535.002 335 534.361 335C533.72 335 533.451 334.332 533.765 333.515C534.479 331.653 532.216 330.431 526.409 329.546C517.791 328.232 515.668 327.117 512.948 322.477C507.794 313.682 499.563 310.145 488.752 312.078C485.275 312.7 481.27 314.279 478.862 315.978C470.364 321.972 461.663 320.856 454.409 312.842C441.732 298.835 441.931 299 437.663 299C435.458 299 432.038 299.675 430.063 300.5C428.089 301.325 423.59 302 420.067 302C416.543 302 411.747 301.325 409.409 300.5C403.587 298.446 403.171 298.521 398.409 302.5ZM933.159 303.203C929.178 304.26 928.4 305.399 930.981 306.389C932.752 307.069 935.437 305.876 937.364 303.555C938.807 301.815 938.484 301.788 933.159 303.203ZM376.58 309.318C375.383 310.592 371.592 312.941 368.156 314.537C364.72 316.133 361.761 317.526 361.579 317.633C361.398 317.739 362.031 319.02 362.987 320.479C363.943 321.938 365.233 325.387 365.854 328.143L366.983 333.155L374.946 327.466C385.534 319.902 391.409 315.073 391.409 313.933C391.409 313.42 389.834 313 387.909 313C384.521 313 380.409 310.259 380.409 308C380.409 306.341 378.884 306.866 376.58 309.318ZM398.98 310.487C396.82 311.257 394.718 312.483 394.311 313.21C392.045 317.259 378.39 328.949 372.292 332.06L368.316 334.088L372.444 338.777C374.714 341.356 377.287 344.678 378.162 346.159L379.753 348.852L384.331 345.237C395.319 336.558 406.821 323.967 410.763 316.3C412.94 312.068 412.86 311.527 409.862 310.161C406.587 308.668 403.856 308.75 398.98 310.487ZM296.909 310.945C295.809 311.396 294.058 312.71 293.019 313.866C291.763 315.262 290.398 315.784 288.955 315.422C286.264 314.747 283.024 317.282 280.552 322C279.403 324.192 277.619 325.835 275.777 326.397C272.94 327.262 272.829 327.528 272.641 333.872C271.921 358.147 256.684 397.425 237.299 424.977C230.672 434.395 216.937 448.704 209.814 453.61C206.423 455.945 204.723 457.714 205.307 458.298C206.567 459.558 217.575 452.089 230.336 441.319C246.861 427.372 263.757 405.623 272.955 386.458C278.572 374.754 280.268 367.974 278.435 364.549C276.793 361.48 277.578 352.508 279.878 348.059C282.14 343.686 284.547 341.472 290.125 338.635C292.756 337.297 296.679 334.79 298.842 333.065C303.866 329.057 313.384 324.589 320.328 322.977C325.254 321.834 325.577 321.596 323.886 320.36C322.864 319.612 320.16 319 317.878 319C314.423 319 313.54 318.582 312.59 316.498C310.301 311.474 302.428 308.687 296.909 310.945ZM412.147 317.239C408.548 325.069 398.41 337.184 389.652 344.119C385.393 347.492 381.804 350.533 381.675 350.876C381.547 351.219 381.831 352.116 382.308 352.869C383.457 354.685 391.505 348.699 400.487 339.348C410.248 329.185 412.409 326.2 412.409 322.878C412.409 318.42 416.314 315.027 421.614 314.882L425.909 314.765L421.209 313.972C418.624 313.537 416.072 312.91 415.537 312.579C415.003 312.249 413.477 314.346 412.147 317.239ZM430.659 322.996C429.421 324 428.409 325.603 428.409 326.559C428.409 329.029 420.244 343.691 414.937 350.751C408.934 358.736 397.648 369.259 392.574 371.601C390.311 372.646 388.449 374.077 388.435 374.782C388.401 376.46 391.141 383 391.878 383C392.976 383 400.934 377.735 403.776 375.129C411.795 367.774 422.659 352.218 427.054 341.796C430.177 334.392 433.89 322.144 433.215 321.475C433.047 321.309 431.897 321.993 430.659 322.996ZM434.409 322.948C434.409 326.149 429.394 341.064 426.153 347.5C422.405 354.943 411.294 369.953 404.951 376.141C402.335 378.694 398.511 381.602 396.453 382.602L392.713 384.422L395.013 389.461C397.755 395.467 399.265 404.21 398.691 410.754C397.419 425.239 393.079 440.087 386.635 452C380.768 462.845 364.296 485.798 357.373 492.774C355.586 494.575 354.323 496.247 354.566 496.49C355.254 497.179 391.76 484.748 402.909 480.029C423.688 471.233 436.396 463.535 450.919 450.945C468.809 435.436 475.587 426.272 478.988 413C482.747 398.325 476.349 386.493 460.745 379.264C456.124 377.124 452.828 376.437 444.909 375.965C439.409 375.637 434.139 375.02 433.197 374.592C431.988 374.043 430.779 374.576 429.082 376.408C426.557 379.132 421.951 379.914 421.174 377.75C420.292 375.295 422.473 370.124 425.446 367.623C429.516 364.197 434.417 363.386 439.281 365.332C442.967 366.807 443.526 366.759 450.365 364.381C459.24 361.294 461.893 361.742 468.997 367.529C478.294 375.101 490.171 375.637 495.968 368.747C499.003 365.141 499.018 362.844 496.05 356.5C492.342 348.575 483.393 340.527 473.859 336.544L470.067 334.959L464.988 340.374C457.689 348.157 452.153 350.539 447.343 347.965C444.457 346.42 444.767 340.951 447.909 338C449.284 336.708 450.409 334.785 450.409 333.727C450.409 327.854 443.509 321 437.597 321C435.104 321 434.409 321.425 434.409 322.948ZM414.673 325.75C413.596 326.712 410.377 330.513 407.519 334.196C401.753 341.626 394.002 348.969 387.909 352.772C385.709 354.145 383.807 355.348 383.683 355.444C383.559 355.54 384.264 357.744 385.25 360.341L387.043 365.064L398.056 354.173C408.385 343.957 417.004 332.825 419.339 326.683C420.22 324.367 420.104 324 418.495 324C417.47 324 415.75 324.788 414.673 325.75ZM419.4 329.752C416.058 337.308 409.153 346.029 398.037 356.737C388.194 366.217 385.763 369.865 388.258 371.407C390.54 372.817 405.888 359.101 413.331 349C418.446 342.059 426.409 328.78 426.409 327.192C426.409 326.665 425.278 326.017 423.896 325.753C421.71 325.335 421.124 325.856 419.4 329.752ZM267.708 332.5C266.79 334.425 265.672 336 265.224 336C264.776 336 264.409 336.83 264.409 337.843C264.409 344.186 252.055 369.536 239.966 388C224.563 411.526 207.624 430.969 193.035 441.87L184.161 448.5L188.556 449.021C190.973 449.307 195.105 450.804 197.738 452.347L202.526 455.153L207.73 451.138C215.344 445.264 228.188 431.73 235.341 422.044C255.506 394.739 266.768 366.291 270.89 332.25C271.407 327.981 269.803 328.107 267.708 332.5ZM870.871 338.25C866.48 342.237 859.674 349.1 855.749 353.5C848.87 361.211 845.753 365.106 823.742 393.5C801.937 421.629 786.999 435.634 766.909 446.781C758.96 451.191 763.785 449.794 773.909 444.754C793.554 434.973 803.295 426.324 833.889 391.5C857.113 365.066 867.814 354.487 878.89 347.013C886.342 341.984 901.937 334 904.306 334C905.97 334 905.629 332.298 903.827 331.607C902.957 331.273 896.983 331 890.551 331H878.857L870.871 338.25ZM904.409 337.428C887.824 344.247 875.071 352.588 862.828 364.626C858.423 368.957 845.58 383.075 834.288 396C811.481 422.106 801.035 432.431 790.225 439.552C775.148 449.485 755.151 457.317 729.043 463.516L714.909 466.872L724.607 466.936C739.627 467.035 770.41 459.679 786.951 452.037C804.397 443.977 819.725 432.31 845.104 407.773C870.274 383.439 884.221 372.707 900.731 364.97C908.826 361.177 924.864 356 928.521 356C929.559 356 930.409 355.491 930.409 354.87C930.409 354.116 928.853 353.915 925.731 354.267C920.018 354.911 916.409 353.461 916.409 350.521C916.409 346.82 913.512 338.403 911.669 336.748C910.058 335.301 909.445 335.358 904.409 337.428ZM854.809 336.765C854.204 337.169 853.159 338.543 852.488 339.817C851.482 341.726 851.556 342.575 852.91 344.641C854.416 346.94 854.734 347.029 856.731 345.71C859.734 343.726 861.125 339.568 859.459 337.56C858.056 335.869 856.539 335.61 854.809 336.765ZM298.66 358.875C296.33 362.026 297.008 363 301.531 363C304.554 363 310.978 366.637 313.405 369.722C317.187 374.529 318.409 378.858 318.409 387.446C318.409 405.864 307.735 429.265 290.94 447.667C273.719 466.535 235.01 488.194 214.463 490.459C208.045 491.166 207.546 491.468 210.328 492.956C211.91 493.804 213.569 493.734 217.163 492.671C221.164 491.488 222.615 491.478 226.409 492.605C230.559 493.838 231.492 493.746 238.409 491.418C274.847 479.154 311.815 445.522 325.703 412C334.542 390.665 332.935 373.637 321.181 364.096C318.074 361.572 309.038 357.643 303.871 356.567C301.298 356.031 300.501 356.384 298.66 358.875ZM923.437 360.066C896.794 367.041 880.629 377.81 843.815 413.109C834.413 422.124 823.293 432.18 819.104 435.456C814.915 438.732 811.622 441.546 811.786 441.71C812.678 442.602 831.369 431.112 845.107 421.225C881.319 395.164 896.109 387.345 920.206 381.524C927.266 379.819 927.447 379.7 925.789 377.868C922.604 374.348 923.585 370.172 928.742 365.299C933.266 361.025 934.72 357.942 932.159 358.055C931.472 358.085 927.547 358.99 923.437 360.066ZM293.093 364.65C292.723 365.02 293.991 366.39 295.911 367.695C302.812 372.384 305.385 381.448 303.027 392.758C299.552 409.422 284.419 430.792 264.14 447.67C248.969 460.296 231.71 471.024 216.159 477.492C209.433 480.29 209.409 480.314 209.409 484.264V488.227L214.159 487.562C226.334 485.856 250.881 474.859 268.125 463.385C289.254 449.327 304.597 429.569 312.301 406.5C320.536 381.839 315.434 367.54 297.337 364.564C295.373 364.241 293.463 364.279 293.093 364.65ZM280.409 368.99C280.409 373.027 275.28 386.473 270.297 395.5C258.978 416.007 239.433 437.827 218.405 453.433C212.632 457.717 207.755 461.364 207.568 461.536C206.902 462.147 208.559 466 209.487 466C210.006 466 214.57 463.439 219.63 460.309C256.933 437.235 286.406 403.363 288.157 381.555C288.723 374.504 287.365 369.591 284.577 368.595C283.66 368.267 282.347 367.737 281.659 367.416C280.865 367.046 280.409 367.621 280.409 368.99ZM288.837 368.328C288.557 369.058 288.796 370.887 289.368 372.393C297.166 392.902 266.386 435.432 224.892 461.483C220.098 464.492 214.641 467.51 212.766 468.188C210.563 468.985 209.543 469.906 209.883 470.792C210.172 471.546 210.409 472.802 210.409 473.582C210.409 475.841 212.233 475.31 223.909 469.645C264.141 450.128 299.057 412.953 301.158 387.395C301.808 379.49 300.258 375 295.35 370.566C291.112 366.737 289.641 366.232 288.837 368.328ZM93.8619 374.015C90.9639 374.906 90.7609 375.324 89.7249 382.515C88.3179 392.28 81.1199 406.97 71.4369 419.84C67.5709 424.977 64.4089 429.255 64.4089 429.346C64.4089 429.437 67.2879 429.592 70.8059 429.69C74.3249 429.788 79.0789 430.373 81.3709 430.99C91.5489 433.731 101.288 423.831 98.9379 413.132C98.3429 410.425 97.8369 410.077 94.0909 409.804C90.2179 409.522 89.8869 409.27 89.6049 406.382C89.3489 403.748 90.0299 402.624 93.9959 399.132C96.5779 396.859 99.0679 395 99.5289 395C101.857 395 107.913 376.171 106.153 374.41C105.036 373.294 97.0409 373.036 93.8619 374.015ZM108.369 375.128C108.347 375.332 108.155 377.75 107.942 380.5C107.729 383.25 107.072 386.767 106.482 388.315C104.852 392.593 105.097 393 109.302 393C111.929 393 113.392 392.486 113.802 391.418C115.452 387.117 113.453 378.938 110.064 376.128C109.154 375.373 108.391 374.923 108.369 375.128ZM577.757 380.535C576.796 383.039 568.932 387.893 564.772 388.55C560.018 389.3 555.409 387.683 555.409 385.265C555.409 382.203 551.379 380.648 542.269 380.195C529.655 379.568 524.98 381.363 517.645 389.651C511.267 396.857 508.003 399 503.409 399C499.788 399 495.688 400.93 493.002 403.898C491.303 405.775 491.279 406 492.775 406C493.697 406 496.23 404.823 498.403 403.385L502.355 400.77L506.413 402.885C512.188 405.895 513.778 405.576 518.615 400.438C526.442 392.122 535.093 389.406 544.161 392.418C549.125 394.066 556.409 400.127 556.409 402.608C556.409 404.932 554.558 405.07 554.23 402.771C553.732 399.264 544.201 394 538.352 394C529.797 394 525.409 396.904 525.409 402.565C525.409 404.922 531.338 404.292 534.928 401.553C539.797 397.84 542.425 397.536 546.419 400.228C551.003 403.317 552.585 406.552 552.07 411.779C551.716 415.369 551.911 415.986 553.279 415.604C556.902 414.593 561.154 413.986 565.659 413.835C570.751 413.664 571.903 412.592 568.037 411.622C565.157 410.899 558.409 403.657 558.409 401.289C558.409 400.056 559.587 400.717 562.659 403.675C569.859 410.606 573.967 411.593 580.67 408C582.723 406.9 584.567 406 584.768 406C584.969 406 586.833 407.35 588.909 409C593.708 412.813 594.61 412.771 594.222 408.75C593.959 406.014 593.197 405.151 589.409 403.291C584.24 400.754 586.416 400.219 592.31 402.577C595.28 403.766 596.748 403.889 598.265 403.077C602.304 400.915 606.031 401.774 609.061 405.564C617.36 415.949 619.561 416.939 624.148 412.351L626.797 409.703L623.205 406.601C621.229 404.896 618.87 402.018 617.962 400.206C614.602 393.498 605.831 391.176 596.409 394.5C591.013 396.404 589.085 396.367 592.659 394.428C597.545 391.777 595.094 389.37 589.223 391.053C584.81 392.319 584.43 392.203 587.409 390.5C590.653 388.646 594.847 388.618 596.36 390.441C598.205 392.664 600.185 391.305 599.627 388.2C599.359 386.715 598.696 384.938 598.152 384.25C596.845 382.596 592.523 382.72 589.409 384.5C585.655 386.646 584.538 386.333 582.276 382.5C580.042 378.713 578.683 378.122 577.757 380.535ZM947.269 381.473C946.957 381.785 942.535 382.261 937.441 382.532C926.507 383.112 911.244 386.781 899.442 391.665C885.964 397.244 875.522 403.547 854.409 418.851C846.434 424.632 836.589 431.53 832.531 434.181C818.666 443.236 830.1 439.724 859.909 425.771C886.017 413.549 904 407.253 920.492 404.558C923.69 404.035 924.076 403.644 924.076 400.93C924.076 393.877 931.267 391.666 944.903 394.528C951.529 395.918 953.97 396.066 955.888 395.192C959.378 393.602 960.167 389.452 957.815 385.06C956.176 381.998 955.344 381.458 951.873 381.203C949.653 381.04 947.581 381.161 947.269 381.473ZM960.28 386.514C961.743 390.584 961.753 391.297 960.375 393.751C958.02 397.947 954.616 398.648 946.176 396.674C933.045 393.603 925.409 395.03 925.409 400.557C925.409 403.472 927.216 403.685 933.409 401.5C938.941 399.548 945.695 399.592 949.709 401.606C951.469 402.489 955.455 405.696 958.566 408.732L964.223 414.254L969.904 413.715C976.275 413.11 980.34 414.388 985.288 418.552C987.005 419.996 988.409 420.91 988.409 420.583C988.409 420.256 985.084 413.108 981.02 404.698C973.274 388.667 970.848 385.684 963.51 383.166C958.582 381.476 958.499 381.562 960.28 386.514ZM522.961 400.25C522.749 400.938 522.3 404.65 521.964 408.5C521.628 412.35 521.08 417.075 520.745 419C520.16 422.367 520.209 422.437 522.023 420.835C525.106 418.112 530.673 417.595 536.404 419.498C542.731 421.6 546.352 420.446 549.521 415.319C555.355 405.88 543.848 394.581 536.436 402.471C531.046 408.209 522.593 407.832 523.777 401.908C524.347 399.058 523.721 397.786 522.961 400.25ZM935.909 403C934.533 403.591 936.144 403.881 941.077 403.93C945.02 403.968 949.07 404.256 950.077 404.569C951.085 404.882 950.784 404.448 949.409 403.605C946.709 401.948 939.145 401.609 935.909 403ZM922.865 407.016C907.577 408.63 889.767 414.738 860.909 428.261C852.109 432.385 844.235 435.963 843.41 436.213C841.6 436.76 864.475 438.433 872.909 438.37C877.377 438.336 882.919 436.996 894.616 433.119C915.545 426.183 921.492 425.038 936.701 425.017C950.638 424.998 960.28 426.554 971.645 430.653C980.127 433.713 980.909 433.224 980.909 424.862C980.909 419.665 980.568 418.548 978.466 416.845C976.92 415.593 975.269 415.094 973.966 415.486C972.835 415.826 970.203 416.367 968.119 416.689C964.591 417.234 964.011 416.943 959.732 412.477C955.188 407.734 955.042 407.67 947.022 406.903C937.444 405.986 932.393 406.009 922.865 407.016ZM981.909 425.753C981.909 435.859 976.705 444.845 965.205 454.595C952.158 465.657 938.3 468.211 917.409 463.405L914.909 462.83L917.409 464.901C918.784 466.04 922.684 468.426 926.076 470.204C932.238 473.433 932.248 473.435 939.357 472.216C953.947 469.714 963.468 464.864 973.101 455.025C982.025 445.913 988.362 428.782 985.206 422.308C982.92 417.619 981.909 418.676 981.909 425.753ZM987.409 427.672C987.409 437.549 980.754 450.767 971.289 459.685C964.002 466.553 952.045 472.289 941.646 473.906L936.909 474.643L940.909 475.816C947.608 477.78 950.53 477.243 958.807 472.527C974.521 463.572 980.916 457.396 986.181 446.092C989.321 439.35 990.698 428.363 988.759 425.527C987.525 423.724 987.409 423.909 987.409 427.672ZM993.735 426.683C995.919 430.325 996.125 437.382 994.265 444.83C990.888 458.346 982.156 469.387 970.233 475.215C958.359 481.019 947.887 481.524 934.851 476.923C924.935 473.423 922.531 471.986 905.909 459.616C892.392 449.556 882.65 444.482 873.879 442.931C870.595 442.351 865.99 441.454 863.645 440.938C857.358 439.555 840.262 439.808 829.405 441.445C815.901 443.48 805.297 447.076 786.409 456.025C764.667 466.326 758.254 468.129 736.594 470.028C723.707 471.157 699.212 469.902 690.697 467.675C687.83 466.926 685.72 466.695 686.009 467.162C687.153 469.014 712.868 483.615 729.224 491.701L746.539 500.261L756.224 499.75C767.965 499.13 773.852 497.138 798.409 485.475C818.303 476.027 823.808 474.173 834.478 473.33C848.635 472.211 860.251 475.597 879.909 486.572C909.136 502.889 917.059 506.044 934.142 508.168C949.236 510.045 965.358 506.713 979.215 498.853C987.621 494.085 997.409 483.844 1001.46 475.579C1004.46 469.455 1004.9 467.532 1005.24 458.882C1005.59 450.175 1005.4 448.719 1003.45 445.571C1002.25 443.627 1001.54 441.591 1001.88 441.048C1002.39 440.219 999.926 434 999.086 434C998.936 434 998.992 436.813 999.21 440.25C1000.08 453.948 994.566 468.736 985.139 478C974.699 488.258 954.123 496 937.298 496C920.36 496 912.117 492.799 888.409 477.017C870.213 464.904 863.703 461.728 852.361 459.43C841.629 457.256 826.82 457.916 816.995 461.006C813.193 462.203 801.454 467.15 790.909 472C765.169 483.839 757.055 486.157 740.409 486.429C733.447 486.543 718.257 484.255 716.921 482.892C716.226 482.182 716.849 482.11 718.909 482.66C720.559 483.1 728.659 483.416 736.909 483.361C755.909 483.235 764.668 481.046 786.409 470.993C816.633 457.018 827.342 454.081 843.536 455.33C859.813 456.585 868.434 460.16 890.653 474.867C914.491 490.645 919.526 492.519 937.909 492.454C949.375 492.414 951.912 492.079 959.409 489.613C983.062 481.834 994.94 469.147 997.377 449.059C998.546 439.418 997.248 428.92 994.622 426.794C993.586 425.954 993.274 425.916 993.735 426.683ZM921.409 428.643C915.981 429.664 903.574 433.199 897.409 435.482C893.834 436.806 888.269 438.636 885.041 439.55L879.174 441.21L884.716 443.463C887.765 444.702 894.155 448.367 898.917 451.608C903.68 454.849 908.776 458.251 910.242 459.169C914.085 461.574 935.304 464.052 942.829 462.974C954.126 461.356 967.802 452.272 974.983 441.618L978.432 436.5L974.253 434.72C963.738 430.241 955.302 428.721 939.409 428.443C930.884 428.294 922.784 428.384 921.409 428.643ZM991.424 432.782C991.402 437.514 987.824 447.447 983.973 453.468C979.605 460.296 971.429 467.396 961.745 472.77L953.909 477.119L958.409 476.479C968.404 475.056 980.284 467.403 986.482 458.394C992.19 450.098 995.34 435.536 992.409 431C991.674 429.863 991.436 430.295 991.424 432.782ZM542.069 449.75C541.817 450.163 545.503 450.567 550.26 450.649C560.907 450.833 572.052 453.654 583.224 458.995C594.158 464.222 603.387 470.707 617.409 483.016C638.579 501.6 653.675 512.01 668.256 518.08C678.757 522.452 696.791 526.855 706.68 527.462L714.909 527.967L706.233 526.034C693.474 523.192 676.951 518.252 668.409 514.725C654.362 508.924 642.415 500.824 622.409 483.539C598.872 463.202 583.529 454.365 565.201 450.588C557.241 448.948 542.877 448.428 542.069 449.75ZM1007.44 455.614C1007.34 469.073 1002.24 480.391 991.505 491.011C981.859 500.548 971.641 505.963 954.909 510.404C953.809 510.696 956.985 510.759 961.966 510.545C984.417 509.579 998.578 501.558 1006.6 485.266C1009.76 478.834 1009.91 478.041 1009.91 467.021C1009.91 459.717 1009.46 454.768 1008.69 453.5C1007.6 451.717 1007.47 451.945 1007.44 455.614ZM668.678 454.693C669.651 454.947 671.001 454.93 671.678 454.656C672.355 454.382 671.559 454.175 669.909 454.195C668.259 454.215 667.705 454.439 668.678 454.693ZM717.222 462.683C717.943 462.972 718.806 462.936 719.138 462.604C719.47 462.272 718.88 462.036 717.826 462.079C716.661 462.127 716.424 462.364 717.222 462.683ZM698.909 463.948C689.206 464.435 688.486 464.588 692.799 465.25C699.928 466.344 705.254 466.144 710.909 464.57C716.434 463.033 716.775 463.051 698.909 463.948ZM1012.16 472.066C1011.29 480.944 1008.33 488.355 1002.9 495.26C991.587 509.629 975.987 514.719 946.409 513.693C919.992 512.776 902.45 508.551 872.909 495.989C836.827 480.645 829.931 480.671 799.079 496.268C791.472 500.113 782.247 504.278 778.579 505.522L771.909 507.785L775.409 508.416C790.14 511.074 787.326 511.496 805.696 503.879C830.06 493.776 835.805 493.697 864.909 503.065C907.458 516.761 922.054 519.53 947.409 518.718C960.651 518.294 965.845 517.686 973.713 515.639C998.955 509.071 1011.46 497.803 1013.82 479.5C1014.17 476.75 1014.09 472.475 1013.63 470L1012.8 465.5L1012.16 472.066ZM821.954 478.065C818.129 479.187 807.104 483.858 797.454 488.444C775.474 498.891 769.675 501.028 760.909 501.911L753.909 502.616L761.039 504.869L768.169 507.122L777.057 503.689C781.946 501.801 791.788 497.313 798.927 493.715C816.042 485.09 822.998 482.78 832.909 482.43C843.57 482.053 850.606 483.985 874.473 493.842C893.018 501.501 910.642 507.422 912.776 506.711C913.323 506.529 911.019 505.35 907.655 504.092C904.291 502.834 896.897 499.11 891.224 495.816C877.259 487.708 864.763 481.377 857.738 478.85C849.012 475.712 831.296 475.323 821.954 478.065Z" fill="#3ECBCC"/>
</svg>
